<svg xmlns="http://www.w3.org/2000/svg" width="519" height="860" viewBox="0 0 519 860">
<rect width="100%" height="100%" fill="#fcfcfa"/>
<text x="18" y="32" font-family="sans-serif" font-size="19" font-weight="bold" fill="#111">여의도중학교 – 수광 대상 파사드(남측)와 수광점 평면</text>
<text x="18" y="56" font-family="sans-serif" font-size="12.5" fill="#555">굵은 청색 = 수광점을 두는 남측 외벽 / 회색 = 대상 외 외벽(북측·단부벽). 상단이 북.</text>
<text x="18" y="76" font-family="sans-serif" font-size="12.5" fill="#555">붉은 점은 각 층 수광점이 평면상 겹쳐 보이는 위치입니다.</text>
<polygon points="111.0,155.9 169.5,227.1 175.8,222.0 227.5,285.0 231.1,282.0 251.6,306.9 250.0,308.3 251.8,310.4 242.2,318.3 298.9,387.9 316.7,374.0 315.3,372.3 318.9,369.5 360.8,423.2 358.5,424.9 357.7,423.9 340.6,437.2 376.0,482.6 377.6,482.9 386.5,476.0 388.4,478.3 390.2,476.8 410.2,502.5 399.1,511.2 399.5,511.7 439.2,560.2 411.2,583.2 410.3,582.2 408.1,584.0 79.9,181.4 111.0,155.9" fill="#eceae4" stroke="#9b9b93" stroke-width="1.4"/>
<line x1="408.1" y1="584.0" x2="79.9" y2="181.4" stroke="#1d3557" stroke-width="5" stroke-linecap="round"/>
<line x1="316.7" y1="374.0" x2="315.3" y2="372.3" stroke="#1d3557" stroke-width="5" stroke-linecap="round"/>
<line x1="358.5" y1="424.9" x2="357.7" y2="423.9" stroke="#1d3557" stroke-width="5" stroke-linecap="round"/>
<line x1="411.2" y1="583.2" x2="410.3" y2="582.2" stroke="#1d3557" stroke-width="5" stroke-linecap="round"/>
<text x="264.4" y="369.8" font-family="sans-serif" font-size="13" font-weight="bold" text-anchor="middle" fill="#111">본관(5층)</text>
<polygon points="361.9,623.2 363.7,627.6 363.5,631.5 360.7,634.8 356.8,637.4 353.6,637.2 352.8,652.4 347.9,670.2 342.8,683.8 335.3,696.6 328.5,704.4 317.4,715.2 284.2,743.8 244.9,774.1 243.8,772.8 214.2,737.1 268.4,689.8 272.6,694.7 297.4,669.5 293.2,658.5 291.6,646.8 291.4,636.6 291.6,623.8 282.4,626.9 270.2,625.7 256.5,620.6 242.4,609.8 234.4,591.7 232.3,571.1 237.0,554.0 246.6,541.0 262.4,531.9 281.1,529.2 298.8,532.3 315.5,539.9 326.5,552.9 336.9,566.6 346.9,589.2 352.2,608.3 353.6,618.8 358.5,620.4 361.9,623.2" fill="#eceae4" stroke="#9b9b93" stroke-width="1.4"/>
<line x1="232.3" y1="571.1" x2="234.4" y2="591.7" stroke="#1d3557" stroke-width="5" stroke-linecap="round"/>
<line x1="234.4" y1="591.7" x2="242.4" y2="609.8" stroke="#1d3557" stroke-width="5" stroke-linecap="round"/>
<line x1="242.4" y1="609.8" x2="256.5" y2="620.6" stroke="#1d3557" stroke-width="5" stroke-linecap="round"/>
<line x1="256.5" y1="620.6" x2="270.2" y2="625.7" stroke="#1d3557" stroke-width="5" stroke-linecap="round"/>
<line x1="270.2" y1="625.7" x2="282.4" y2="626.9" stroke="#1d3557" stroke-width="5" stroke-linecap="round"/>
<line x1="282.4" y1="626.9" x2="291.6" y2="623.8" stroke="#1d3557" stroke-width="5" stroke-linecap="round"/>
<line x1="291.4" y1="636.6" x2="291.6" y2="646.8" stroke="#1d3557" stroke-width="5" stroke-linecap="round"/>
<line x1="291.6" y1="646.8" x2="293.2" y2="658.5" stroke="#1d3557" stroke-width="5" stroke-linecap="round"/>
<line x1="293.2" y1="658.5" x2="297.4" y2="669.5" stroke="#1d3557" stroke-width="5" stroke-linecap="round"/>
<line x1="214.2" y1="737.1" x2="243.8" y2="772.8" stroke="#1d3557" stroke-width="5" stroke-linecap="round"/>
<line x1="243.8" y1="772.8" x2="244.9" y2="774.1" stroke="#1d3557" stroke-width="5" stroke-linecap="round"/>
<line x1="244.9" y1="774.1" x2="284.2" y2="743.8" stroke="#1d3557" stroke-width="5" stroke-linecap="round"/>
<line x1="284.2" y1="743.8" x2="317.4" y2="715.2" stroke="#1d3557" stroke-width="5" stroke-linecap="round"/>
<line x1="317.4" y1="715.2" x2="328.5" y2="704.4" stroke="#1d3557" stroke-width="5" stroke-linecap="round"/>
<line x1="328.5" y1="704.4" x2="335.3" y2="696.6" stroke="#1d3557" stroke-width="5" stroke-linecap="round"/>
<line x1="335.3" y1="696.6" x2="342.8" y2="683.8" stroke="#1d3557" stroke-width="5" stroke-linecap="round"/>
<line x1="342.8" y1="683.8" x2="347.9" y2="670.2" stroke="#1d3557" stroke-width="5" stroke-linecap="round"/>
<line x1="347.9" y1="670.2" x2="352.8" y2="652.4" stroke="#1d3557" stroke-width="5" stroke-linecap="round"/>
<line x1="352.8" y1="652.4" x2="353.6" y2="637.2" stroke="#1d3557" stroke-width="5" stroke-linecap="round"/>
<line x1="353.6" y1="637.2" x2="356.8" y2="637.4" stroke="#1d3557" stroke-width="5" stroke-linecap="round"/>
<line x1="356.8" y1="637.4" x2="360.7" y2="634.8" stroke="#1d3557" stroke-width="5" stroke-linecap="round"/>
<line x1="360.7" y1="634.8" x2="363.5" y2="631.5" stroke="#1d3557" stroke-width="5" stroke-linecap="round"/>
<line x1="363.5" y1="631.5" x2="363.7" y2="627.6" stroke="#1d3557" stroke-width="5" stroke-linecap="round"/>
<text x="291.7" y="637.7" font-family="sans-serif" font-size="13" font-weight="bold" text-anchor="middle" fill="#111">체육관동(정보화센타)</text>
<polygon points="268.3,679.7 202.9,732.8 157.4,676.9 149.5,662.3 144.6,649.3 142.1,634.0 143.0,620.3 145.9,612.2 152.3,604.1 163.7,600.4 180.7,601.4 200.3,607.7 221.3,625.0 256.9,665.0 268.3,679.7" fill="#eceae4" stroke="#9b9b93" stroke-width="1.4"/>
<line x1="142.1" y1="634.0" x2="144.6" y2="649.3" stroke="#1d3557" stroke-width="5" stroke-linecap="round"/>
<line x1="144.6" y1="649.3" x2="149.5" y2="662.3" stroke="#1d3557" stroke-width="5" stroke-linecap="round"/>
<line x1="149.5" y1="662.3" x2="157.4" y2="676.9" stroke="#1d3557" stroke-width="5" stroke-linecap="round"/>
<line x1="157.4" y1="676.9" x2="202.9" y2="732.8" stroke="#1d3557" stroke-width="5" stroke-linecap="round"/>
<line x1="202.9" y1="732.8" x2="268.3" y2="679.7" stroke="#1d3557" stroke-width="5" stroke-linecap="round"/>
<text x="198.3" y="661.2" font-family="sans-serif" font-size="13" font-weight="bold" text-anchor="middle" fill="#111">체육관동 부속(원형부)</text>
<circle cx="84.8" cy="189.6" r="2.6" fill="#c1121f" stroke="#fff" stroke-width="0.6"/>
<circle cx="92.7" cy="199.4" r="2.6" fill="#c1121f" stroke="#fff" stroke-width="0.6"/>
<circle cx="104.7" cy="214.0" r="2.6" fill="#c1121f" stroke="#fff" stroke-width="0.6"/>
<circle cx="112.6" cy="223.7" r="2.6" fill="#c1121f" stroke="#fff" stroke-width="0.6"/>
<circle cx="124.5" cy="238.4" r="2.6" fill="#c1121f" stroke="#fff" stroke-width="0.6"/>
<circle cx="132.5" cy="248.1" r="2.6" fill="#c1121f" stroke="#fff" stroke-width="0.6"/>
<circle cx="144.4" cy="262.7" r="2.6" fill="#c1121f" stroke="#fff" stroke-width="0.6"/>
<circle cx="152.3" cy="272.5" r="2.6" fill="#c1121f" stroke="#fff" stroke-width="0.6"/>
<circle cx="164.3" cy="287.1" r="2.6" fill="#c1121f" stroke="#fff" stroke-width="0.6"/>
<circle cx="172.2" cy="296.9" r="2.6" fill="#c1121f" stroke="#fff" stroke-width="0.6"/>
<circle cx="184.1" cy="311.5" r="2.6" fill="#c1121f" stroke="#fff" stroke-width="0.6"/>
<circle cx="192.1" cy="321.3" r="2.6" fill="#c1121f" stroke="#fff" stroke-width="0.6"/>
<circle cx="204.0" cy="335.9" r="2.6" fill="#c1121f" stroke="#fff" stroke-width="0.6"/>
<circle cx="211.9" cy="345.6" r="2.6" fill="#c1121f" stroke="#fff" stroke-width="0.6"/>
<circle cx="223.9" cy="360.3" r="2.6" fill="#c1121f" stroke="#fff" stroke-width="0.6"/>
<circle cx="231.8" cy="370.0" r="2.6" fill="#c1121f" stroke="#fff" stroke-width="0.6"/>
<circle cx="243.7" cy="384.6" r="2.6" fill="#c1121f" stroke="#fff" stroke-width="0.6"/>
<circle cx="251.7" cy="394.4" r="2.6" fill="#c1121f" stroke="#fff" stroke-width="0.6"/>
<circle cx="263.6" cy="409.0" r="2.6" fill="#c1121f" stroke="#fff" stroke-width="0.6"/>
<circle cx="271.6" cy="418.8" r="2.6" fill="#c1121f" stroke="#fff" stroke-width="0.6"/>
<circle cx="283.5" cy="433.4" r="2.6" fill="#c1121f" stroke="#fff" stroke-width="0.6"/>
<circle cx="291.4" cy="443.1" r="2.6" fill="#c1121f" stroke="#fff" stroke-width="0.6"/>
<circle cx="303.3" cy="457.8" r="2.6" fill="#c1121f" stroke="#fff" stroke-width="0.6"/>
<circle cx="311.3" cy="467.5" r="2.6" fill="#c1121f" stroke="#fff" stroke-width="0.6"/>
<circle cx="323.2" cy="482.1" r="2.6" fill="#c1121f" stroke="#fff" stroke-width="0.6"/>
<circle cx="331.2" cy="491.9" r="2.6" fill="#c1121f" stroke="#fff" stroke-width="0.6"/>
<circle cx="343.1" cy="506.5" r="2.6" fill="#c1121f" stroke="#fff" stroke-width="0.6"/>
<circle cx="351.0" cy="516.3" r="2.6" fill="#c1121f" stroke="#fff" stroke-width="0.6"/>
<circle cx="363.0" cy="530.9" r="2.6" fill="#c1121f" stroke="#fff" stroke-width="0.6"/>
<circle cx="370.9" cy="540.7" r="2.6" fill="#c1121f" stroke="#fff" stroke-width="0.6"/>
<circle cx="382.8" cy="555.3" r="2.6" fill="#c1121f" stroke="#fff" stroke-width="0.6"/>
<circle cx="390.8" cy="565.0" r="2.6" fill="#c1121f" stroke="#fff" stroke-width="0.6"/>
<circle cx="231.9" cy="580.6" r="2.6" fill="#c1121f" stroke="#fff" stroke-width="0.6"/>
<circle cx="233.7" cy="593.5" r="2.6" fill="#c1121f" stroke="#fff" stroke-width="0.6"/>
<circle cx="241.9" cy="611.2" r="2.6" fill="#c1121f" stroke="#fff" stroke-width="0.6"/>
<circle cx="251.9" cy="618.8" r="2.6" fill="#c1121f" stroke="#fff" stroke-width="0.6"/>
<circle cx="269.2" cy="626.8" r="2.6" fill="#c1121f" stroke="#fff" stroke-width="0.6"/>
<circle cx="282.1" cy="628.2" r="2.6" fill="#c1121f" stroke="#fff" stroke-width="0.6"/>
<circle cx="290.2" cy="645.6" r="2.6" fill="#c1121f" stroke="#fff" stroke-width="0.6"/>
<circle cx="291.8" cy="658.2" r="2.6" fill="#c1121f" stroke="#fff" stroke-width="0.6"/>
<circle cx="217.4" cy="743.1" r="2.6" fill="#c1121f" stroke="#fff" stroke-width="0.6"/>
<circle cx="225.4" cy="752.8" r="2.6" fill="#c1121f" stroke="#fff" stroke-width="0.6"/>
<circle cx="237.5" cy="767.3" r="2.6" fill="#c1121f" stroke="#fff" stroke-width="0.6"/>
<circle cx="247.8" cy="773.6" r="2.6" fill="#c1121f" stroke="#fff" stroke-width="0.6"/>
<circle cx="262.8" cy="762.1" r="2.6" fill="#c1121f" stroke="#fff" stroke-width="0.6"/>
<circle cx="272.7" cy="754.4" r="2.6" fill="#c1121f" stroke="#fff" stroke-width="0.6"/>
<circle cx="287.6" cy="742.7" r="2.6" fill="#c1121f" stroke="#fff" stroke-width="0.6"/>
<circle cx="297.1" cy="734.5" r="2.6" fill="#c1121f" stroke="#fff" stroke-width="0.6"/>
<circle cx="311.4" cy="722.2" r="2.6" fill="#c1121f" stroke="#fff" stroke-width="0.6"/>
<circle cx="320.9" cy="713.8" r="2.6" fill="#c1121f" stroke="#fff" stroke-width="0.6"/>
<circle cx="334.1" cy="700.1" r="2.6" fill="#c1121f" stroke="#fff" stroke-width="0.6"/>
<circle cx="341.1" cy="689.4" r="2.6" fill="#c1121f" stroke="#fff" stroke-width="0.6"/>
<circle cx="348.7" cy="672.0" r="2.6" fill="#c1121f" stroke="#fff" stroke-width="0.6"/>
<circle cx="352.2" cy="659.7" r="2.6" fill="#c1121f" stroke="#fff" stroke-width="0.6"/>
<circle cx="142.3" cy="643.5" r="2.6" fill="#c1121f" stroke="#fff" stroke-width="0.6"/>
<circle cx="145.6" cy="655.9" r="2.6" fill="#c1121f" stroke="#fff" stroke-width="0.6"/>
<circle cx="153.7" cy="673.0" r="2.6" fill="#c1121f" stroke="#fff" stroke-width="0.6"/>
<circle cx="161.0" cy="683.5" r="2.6" fill="#c1121f" stroke="#fff" stroke-width="0.6"/>
<circle cx="173.0" cy="698.2" r="2.6" fill="#c1121f" stroke="#fff" stroke-width="0.6"/>
<circle cx="180.9" cy="707.9" r="2.6" fill="#c1121f" stroke="#fff" stroke-width="0.6"/>
<circle cx="192.8" cy="722.6" r="2.6" fill="#c1121f" stroke="#fff" stroke-width="0.6"/>
<circle cx="200.8" cy="732.3" r="2.6" fill="#c1121f" stroke="#fff" stroke-width="0.6"/>
<circle cx="217.1" cy="723.0" r="2.6" fill="#c1121f" stroke="#fff" stroke-width="0.6"/>
<circle cx="226.9" cy="715.1" r="2.6" fill="#c1121f" stroke="#fff" stroke-width="0.6"/>
<circle cx="241.5" cy="703.2" r="2.6" fill="#c1121f" stroke="#fff" stroke-width="0.6"/>
<circle cx="251.3" cy="695.3" r="2.6" fill="#c1121f" stroke="#fff" stroke-width="0.6"/>
<g transform="translate(455,104)"><line x1="0" y1="40" x2="0" y2="6" stroke="#111" stroke-width="2"/><polygon points="0,0 -6,12 6,12" fill="#111"/><text x="0" y="56" font-family="sans-serif" font-size="12" text-anchor="middle" fill="#111">N</text></g>
</svg>