# 화랑 A안 조감 모형 — 원점 E194327.70 N546974.70 (EPSG:5186), 단위 m, Z-up
mtllib 조감_모형.mtl
o hwarang_0000
usemtl hwarang
v -4.388 -31.869 0.000
v 10.918 -30.261 0.000
v 4.388 31.869 0.000
v -10.918 30.261 0.000
v -4.388 -31.869 172.300
v 10.918 -30.261 172.300
v 4.388 31.869 172.300
v -10.918 30.261 172.300
f 4 3 2 1
f 5 6 7 8
f 1 2 6 5
f 2 3 7 6
f 3 4 8 7
f 4 1 5 8
o daegyo_0001
usemtl daegyo
v -275.665 59.915 0.000
v -289.283 48.968 0.000
v -276.876 33.534 0.000
v -263.258 44.481 0.000
v -275.665 59.915 145.600
v -289.283 48.968 145.600
v -276.876 33.534 145.600
v -263.258 44.481 145.600
f 12 11 10 9
f 13 14 15 16
f 9 10 14 13
f 10 11 15 14
f 11 12 16 15
f 12 9 13 16
o daegyo_0002
usemtl daegyo
v -267.797 40.832 0.000
v -276.876 33.534 0.000
v -268.848 23.547 0.000
v -259.769 30.846 0.000
v -267.797 40.832 130.800
v -276.876 33.534 130.800
v -268.848 23.547 130.800
v -259.769 30.846 130.800
f 20 19 18 17
f 21 22 23 24
f 17 18 22 21
f 18 19 23 22
f 19 20 24 23
f 20 17 21 24
o daegyo_0003
usemtl daegyo
v -257.811 48.860 0.000
v -267.797 40.832 0.000
v -259.769 30.846 0.000
v -249.783 38.874 0.000
v -257.811 48.860 104.300
v -267.797 40.832 104.300
v -259.769 30.846 104.300
v -249.783 38.874 104.300
f 28 27 26 25
f 29 30 31 32
f 25 26 30 29
f 26 27 31 30
f 27 28 32 31
f 28 25 29 32
o daegyo_0004
usemtl daegyo
v -193.923 34.457 0.000
v -207.541 23.510 0.000
v -195.864 8.984 0.000
v -182.246 19.931 0.000
v -193.923 34.457 145.600
v -207.541 23.510 145.600
v -195.864 8.984 145.600
v -182.246 19.931 145.600
f 36 35 34 33
f 37 38 39 40
f 33 34 38 37
f 34 35 39 38
f 35 36 40 39
f 36 33 37 40
o daegyo_0005
usemtl daegyo
v -182.246 19.931 0.000
v -193.141 11.174 0.000
v -185.842 2.095 0.000
v -174.948 10.853 0.000
v -182.246 19.931 139.700
v -193.141 11.174 139.700
v -185.842 2.095 139.700
v -174.948 10.853 139.700
f 44 43 42 41
f 45 46 47 48
f 41 42 46 45
f 42 43 47 46
f 43 44 48 47
f 44 41 45 48
o daegyo_0006
usemtl daegyo
v -206.811 22.602 0.000
v -215.890 15.304 0.000
v -207.132 4.410 0.000
v -198.054 11.708 0.000
v -206.811 22.602 104.300
v -215.890 15.304 104.300
v -207.132 4.410 104.300
v -198.054 11.708 104.300
f 52 51 50 49
f 53 54 55 56
f 49 50 54 53
f 50 51 55 54
f 51 52 56 55
f 52 49 53 56
o daegyo_0007
usemtl daegyo
v -186.823 -45.025 0.000
v -202.257 -57.432 0.000
v -191.309 -71.050 0.000
v -175.876 -58.643 0.000
v -186.823 -45.025 127.900
v -202.257 -57.432 127.900
v -191.309 -71.050 127.900
v -175.876 -58.643 127.900
f 60 59 58 57
f 61 62 63 64
f 57 58 62 61
f 58 59 63 62
f 59 60 64 63
f 60 57 61 64
o daegyo_0008
usemtl daegyo
v -181.323 -63.022 0.000
v -191.309 -71.050 0.000
v -183.281 -81.036 0.000
v -173.295 -73.008 0.000
v -181.323 -63.022 127.900
v -191.309 -71.050 127.900
v -183.281 -81.036 127.900
v -173.295 -73.008 127.900
f 68 67 66 65
f 69 70 71 72
f 65 66 70 69
f 66 67 71 70
f 67 68 72 71
f 68 65 69 72
o daegyo_0009
usemtl daegyo
v -171.336 -54.994 0.000
v -181.323 -63.022 0.000
v -173.295 -73.008 0.000
v -163.308 -64.980 0.000
v -171.336 -54.994 104.300
v -181.323 -63.022 104.300
v -173.295 -73.008 104.300
v -163.308 -64.980 104.300
f 76 75 74 73
f 77 78 79 80
f 73 74 78 77
f 74 75 79 78
f 75 76 80 79
f 76 73 77 80
o daegyo_0010
usemtl daegyo
v -119.482 -58.146 0.000
v -133.100 -69.093 0.000
v -121.423 -83.619 0.000
v -107.805 -72.672 0.000
v -119.482 -58.146 130.800
v -133.100 -69.093 130.800
v -121.423 -83.619 130.800
v -107.805 -72.672 130.800
f 84 83 82 81
f 85 86 87 88
f 81 82 86 85
f 82 83 87 86
f 83 84 88 87
f 84 81 85 88
o daegyo_0011
usemtl daegyo
v -107.805 -72.672 0.000
v -118.699 -81.430 0.000
v -111.401 -90.508 0.000
v -100.507 -81.751 0.000
v -107.805 -72.672 130.800
v -118.699 -81.430 130.800
v -111.401 -90.508 130.800
v -100.507 -81.751 130.800
f 92 91 90 89
f 93 94 95 96
f 89 90 94 93
f 90 91 95 94
f 91 92 96 95
f 92 89 93 96
o daegyo_0012
usemtl daegyo
v -133.100 -69.093 0.000
v -142.179 -76.391 0.000
v -133.421 -87.286 0.000
v -124.342 -79.988 0.000
v -133.100 -69.093 104.300
v -142.179 -76.391 104.300
v -133.421 -87.286 104.300
v -124.342 -79.988 104.300
f 100 99 98 97
f 101 102 103 104
f 97 98 102 101
f 98 99 103 102
f 99 100 104 103
f 100 97 101 104
o daegyo_0013
usemtl daegyo
v -207.005 104.647 0.000
v -224.254 90.781 0.000
v -87.049 -79.900 0.000
v -69.799 -66.033 0.000
v -207.005 104.647 4.500
v -224.254 90.781 4.500
v -87.049 -79.900 4.500
v -69.799 -66.033 4.500
f 108 107 106 105
f 109 110 111 112
f 105 106 110 109
f 106 107 111 110
f 107 108 112 111
f 108 105 109 112
o daegyo_0014
usemtl daegyo
v -224.806 93.326 0.000
v -241.148 80.190 0.000
v -200.278 29.349 0.000
v -183.936 42.485 0.000
v -224.806 93.326 4.500
v -241.148 80.190 4.500
v -200.278 29.349 4.500
v -183.936 42.485 4.500
f 116 115 114 113
f 117 118 119 120
f 113 114 118 117
f 114 115 119 118
f 115 116 120 119
f 116 113 117 120
o daegyo_0015
usemtl daegyo
v -191.841 0.261 0.000
v -211.815 -15.795 0.000
v -165.106 -73.899 0.000
v -145.133 -57.843 0.000
v -191.841 0.261 4.500
v -211.815 -15.795 4.500
v -165.106 -73.899 4.500
v -145.133 -57.843 4.500
f 124 123 122 121
f 125 126 127 128
f 121 122 126 125
f 122 123 127 126
f 123 124 128 127
f 124 121 125 128
o daegyo_0016
usemtl daegyo
v -149.477 -67.313 0.000
v -166.726 -81.179 0.000
v -135.344 -120.218 0.000
v -118.095 -106.351 0.000
v -149.477 -67.313 9.000
v -166.726 -81.179 9.000
v -135.344 -120.218 9.000
v -118.095 -106.351 9.000
f 132 131 130 129
f 133 134 135 136
f 129 130 134 133
f 130 131 135 134
f 131 132 136 135
f 132 129 133 136
o daegyo_0017
usemtl daegyo
v -274.376 53.478 0.000
v -290.173 40.779 0.000
v -150.778 -132.625 0.000
v -134.981 -119.926 0.000
v -274.376 53.478 4.500
v -290.173 40.779 4.500
v -150.778 -132.625 4.500
v -134.981 -119.926 4.500
f 140 139 138 137
f 141 142 143 144
f 137 138 142 141
f 138 139 143 142
f 139 140 144 143
f 140 137 141 144
o sibeom_0018
usemtl sibeom
v -102.639 -182.766 0.000
v -96.619 -191.849 0.000
v -98.713 -187.737 0.000
v -91.611 -182.129 0.000
v -95.537 -177.158 0.000
v -98.676 -181.943 0.000
v -99.798 -180.523 0.000
v -102.639 -182.766 58.800
v -96.619 -191.849 58.800
v -98.713 -187.737 58.800
v -91.611 -182.129 58.800
v -95.537 -177.158 58.800
v -98.676 -181.943 58.800
v -99.798 -180.523 58.800
f 151 150 149 148 147 146 145
f 152 153 154 155 156 157 158
f 145 146 153 152
f 146 147 154 153
f 147 148 155 154
f 148 149 156 155
f 149 150 157 156
f 150 151 158 157
f 151 145 152 158
o sibeom_0019
usemtl sibeom
v -94.827 -176.597 0.000
v -90.901 -181.568 0.000
v -86.080 -178.913 0.000
v -97.442 -187.886 0.000
v -92.955 -193.567 0.000
v -95.348 -191.998 0.000
v -95.646 -194.540 0.000
v -89.477 -202.351 0.000
v -87.198 -199.398 0.000
v -92.544 -195.549 0.000
v -88.134 -190.913 0.000
v -89.816 -188.782 0.000
v -83.425 -183.735 0.000
v -85.668 -180.894 0.000
v -79.128 -174.576 0.000
v -84.175 -168.185 0.000
v -94.827 -176.597 58.800
v -90.901 -181.568 58.800
v -86.080 -178.913 58.800
v -97.442 -187.886 58.800
v -92.955 -193.567 58.800
v -95.348 -191.998 58.800
v -95.646 -194.540 58.800
v -89.477 -202.351 58.800
v -87.198 -199.398 58.800
v -92.544 -195.549 58.800
v -88.134 -190.913 58.800
v -89.816 -188.782 58.800
v -83.425 -183.735 58.800
v -85.668 -180.894 58.800
v -79.128 -174.576 58.800
v -84.175 -168.185 58.800
f 174 173 172 171 170 169 168 167 166 165 164 163 162 161 160 159
f 175 176 177 178 179 180 181 182 183 184 185 186 187 188 189 190
f 159 160 176 175
f 160 161 177 176
f 161 162 178 177
f 162 163 179 178
f 163 164 180 179
f 164 165 181 180
f 165 166 182 181
f 166 167 183 182
f 167 168 184 183
f 168 169 185 184
f 169 170 186 185
f 170 171 187 186
f 171 172 188 187
f 172 173 189 188
f 173 174 190 189
f 174 159 175 190
o sibeom_0020
usemtl sibeom
v -92.467 -205.866 0.000
v -84.055 -216.517 0.000
v -90.635 -206.725 0.000
v -87.646 -203.211 0.000
v -80.504 -213.713 0.000
v -79.084 -212.592 0.000
v -82.449 -208.331 0.000
v -79.608 -206.088 0.000
v -85.366 -200.257 0.000
v -92.467 -205.866 78.000
v -84.055 -216.517 78.000
v -90.635 -206.725 78.000
v -87.646 -203.211 78.000
v -80.504 -213.713 78.000
v -79.084 -212.592 78.000
v -82.449 -208.331 78.000
v -79.608 -206.088 78.000
v -85.366 -200.257 78.000
f 199 198 197 196 195 194 193 192 191
f 200 201 202 203 204 205 206 207 208
f 191 192 201 200
f 192 193 202 201
f 193 194 203 202
f 194 195 204 203
f 195 196 205 204
f 196 197 206 205
f 197 198 207 206
f 198 199 208 207
f 199 191 200 208
o sibeom_0021
usemtl sibeom
v -81.178 -208.480 0.000
v -74.448 -217.002 0.000
v -78.523 -213.302 0.000
v -79.943 -214.423 0.000
v -72.092 -224.365 0.000
v -74.371 -227.319 0.000
v -83.494 -217.228 0.000
v -74.521 -228.590 0.000
v -67.419 -222.981 0.000
v -73.028 -215.880 0.000
v -69.328 -211.805 0.000
v -75.497 -203.994 0.000
v -81.178 -208.480 78.000
v -74.448 -217.002 78.000
v -78.523 -213.302 78.000
v -79.943 -214.423 78.000
v -72.092 -224.365 78.000
v -74.371 -227.319 78.000
v -83.494 -217.228 78.000
v -74.521 -228.590 78.000
v -67.419 -222.981 78.000
v -73.028 -215.880 78.000
v -69.328 -211.805 78.000
v -75.497 -203.994 78.000
f 220 219 218 217 216 215 214 213 212 211 210 209
f 221 222 223 224 225 226 227 228 229 230 231 232
f 209 210 222 221
f 210 211 223 222
f 211 212 224 223
f 212 213 225 224
f 213 214 226 225
f 214 215 227 226
f 215 216 228 227
f 216 217 229 228
f 217 218 230 229
f 218 219 231 230
f 219 220 232 231
f 220 209 221 232
o sibeom_0022
usemtl sibeom
v -72.813 -159.211 0.000
v -70.570 -162.052 0.000
v -63.319 -155.173 0.000
v -59.805 -158.162 0.000
v -59.131 -163.396 0.000
v -44.368 -152.889 0.000
v -46.050 -150.759 0.000
v -50.162 -152.853 0.000
v -44.630 -149.637 0.000
v -46.163 -146.236 0.000
v -57.787 -151.957 0.000
v -60.031 -149.116 0.000
v -56.815 -154.648 0.000
v -51.283 -151.432 0.000
v -56.964 -155.919 0.000
v -60.890 -150.948 0.000
v -72.813 -159.211 52.400
v -70.570 -162.052 52.400
v -63.319 -155.173 52.400
v -59.805 -158.162 52.400
v -59.131 -163.396 52.400
v -44.368 -152.889 52.400
v -46.050 -150.759 52.400
v -50.162 -152.853 52.400
v -44.630 -149.637 52.400
v -46.163 -146.236 52.400
v -57.787 -151.957 52.400
v -60.031 -149.116 52.400
v -56.815 -154.648 52.400
v -51.283 -151.432 52.400
v -56.964 -155.919 52.400
v -60.890 -150.948 52.400
f 248 247 246 245 244 243 242 241 240 239 238 237 236 235 234 233
f 249 250 251 252 253 254 255 256 257 258 259 260 261 262 263 264
f 233 234 250 249
f 234 235 251 250
f 235 236 252 251
f 236 237 253 252
f 237 238 254 253
f 238 239 255 254
f 239 240 256 255
f 240 241 257 256
f 241 242 258 257
f 242 243 259 258
f 243 244 260 259
f 244 245 261 260
f 245 246 262 261
f 246 247 263 262
f 247 248 264 263
f 248 233 249 264
o sibeom_0023
usemtl sibeom
v -48.778 -157.525 0.000
v -41.487 -166.757 0.000
v -47.507 -157.674 0.000
v -44.105 -156.141 0.000
v -34.010 -168.924 0.000
v -32.590 -167.802 0.000
v -27.543 -174.193 0.000
v -25.562 -173.782 0.000
v -25.824 -170.530 0.000
v -31.021 -165.409 0.000
v -26.760 -162.044 0.000
v -32.929 -154.233 0.000
v -37.900 -158.159 0.000
v -43.807 -153.599 0.000
v -48.778 -157.525 65.200
v -41.487 -166.757 65.200
v -47.507 -157.674 65.200
v -44.105 -156.141 65.200
v -34.010 -168.924 65.200
v -32.590 -167.802 65.200
v -27.543 -174.193 65.200
v -25.562 -173.782 65.200
v -25.824 -170.530 65.200
v -31.021 -165.409 65.200
v -26.760 -162.044 65.200
v -32.929 -154.233 65.200
v -37.900 -158.159 65.200
v -43.807 -153.599 65.200
f 278 277 276 275 274 273 272 271 270 269 268 267 266 265
f 279 280 281 282 283 284 285 286 287 288 289 290 291 292
f 265 266 280 279
f 266 267 281 280
f 267 268 282 281
f 268 269 283 282
f 269 270 284 283
f 270 271 285 284
f 271 272 286 285
f 272 273 287 286
f 273 274 288 287
f 274 275 289 288
f 275 276 290 289
f 276 277 291 290
f 277 278 292 291
f 278 265 279 292
o sibeom_0024
usemtl sibeom
v -17.536 -110.944 0.000
v -12.004 -107.728 0.000
v -1.760 -119.239 0.000
v -3.329 -121.632 0.000
v 0.597 -126.603 0.000
v 2.876 -123.650 0.000
v -1.050 -118.679 0.000
v 2.501 -115.874 0.000
v 0.968 -112.473 0.000
v 6.649 -107.986 0.000
v 3.284 -103.726 0.000
v 5.677 -105.295 0.000
v 11.507 -99.538 0.000
v 5.899 -92.436 0.000
v -4.753 -100.849 0.000
v 0.444 -105.969 0.000
v -0.977 -107.091 0.000
v -5.463 -101.410 0.000
v -8.042 -106.905 0.000
v -10.434 -105.335 0.000
v -17.536 -110.944 46.000
v -12.004 -107.728 46.000
v -1.760 -119.239 46.000
v -3.329 -121.632 46.000
v 0.597 -126.603 46.000
v 2.876 -123.650 46.000
v -1.050 -118.679 46.000
v 2.501 -115.874 46.000
v 0.968 -112.473 46.000
v 6.649 -107.986 46.000
v 3.284 -103.726 46.000
v 5.677 -105.295 46.000
v 11.507 -99.538 46.000
v 5.899 -92.436 46.000
v -4.753 -100.849 46.000
v 0.444 -105.969 46.000
v -0.977 -107.091 46.000
v -5.463 -101.410 46.000
v -8.042 -106.905 46.000
v -10.434 -105.335 46.000
f 312 311 310 309 308 307 306 305 304 303 302 301 300 299 298 297 296 295 294 293
f 313 314 315 316 317 318 319 320 321 322 323 324 325 326 327 328 329 330 331 332
f 293 294 314 313
f 294 295 315 314
f 295 296 316 315
f 296 297 317 316
f 297 298 318 317
f 298 299 319 318
f 299 300 320 319
f 300 301 321 320
f 301 302 322 321
f 302 303 323 322
f 303 304 324 323
f 304 305 325 324
f 305 306 326 325
f 306 307 327 326
f 307 308 328 327
f 308 309 329 328
f 309 310 330 329
f 310 311 331 330
f 311 312 332 331
f 312 293 313 332
o sibeom_0025
usemtl sibeom
v -2.393 -130.117 0.000
v -1.272 -131.537 0.000
v 2.989 -128.173 0.000
v 18.543 -149.327 0.000
v 15.553 -152.841 0.000
v 22.655 -147.233 0.000
v 17.607 -140.842 0.000
v 15.477 -142.524 0.000
v 10.841 -138.114 0.000
v 8.186 -133.293 0.000
v 10.316 -131.610 0.000
v 4.708 -124.509 0.000
v -2.393 -130.117 55.600
v -1.272 -131.537 55.600
v 2.989 -128.173 55.600
v 18.543 -149.327 55.600
v 15.553 -152.841 55.600
v 22.655 -147.233 55.600
v 17.607 -140.842 55.600
v 15.477 -142.524 55.600
v 10.841 -138.114 55.600
v 8.186 -133.293 55.600
v 10.316 -131.610 55.600
v 4.708 -124.509 55.600
f 344 343 342 341 340 339 338 337 336 335 334 333
f 345 346 347 348 349 350 351 352 353 354 355 356
f 333 334 346 345
f 334 335 347 346
f 335 336 348 347
f 336 337 349 348
f 337 338 350 349
f 338 339 351 350
f 339 340 352 351
f 340 341 353 352
f 341 342 354 353
f 342 343 355 354
f 343 344 356 355
f 344 333 345 356
o sibeom_0026
usemtl sibeom
v 9.457 -133.442 0.000
v 15.626 -141.254 0.000
v 21.307 -136.767 0.000
v 15.138 -128.955 0.000
v 9.457 -133.442 55.600
v 15.626 -141.254 55.600
v 21.307 -136.767 55.600
v 15.138 -128.955 55.600
f 360 359 358 357
f 361 362 363 364
f 357 358 362 361
f 358 359 363 362
f 359 360 364 363
f 360 357 361 364
o sibeom_0027
usemtl sibeom
v 27.203 -75.611 0.000
v 33.223 -84.694 0.000
v 31.839 -80.022 0.000
v 33.670 -80.881 0.000
v 36.886 -86.413 0.000
v 34.493 -84.843 0.000
v 34.195 -87.385 0.000
v 40.364 -95.197 0.000
v 42.644 -92.243 0.000
v 36.737 -87.684 0.000
v 44.399 -82.786 0.000
v 37.669 -74.264 0.000
v 35.389 -77.217 0.000
v 37.108 -73.554 0.000
v 34.304 -70.003 0.000
v 31.726 -75.499 0.000
v 30.043 -73.368 0.000
v 27.203 -75.611 36.400
v 33.223 -84.694 36.400
v 31.839 -80.022 36.400
v 33.670 -80.881 36.400
v 36.886 -86.413 36.400
v 34.493 -84.843 36.400
v 34.195 -87.385 36.400
v 40.364 -95.197 36.400
v 42.644 -92.243 36.400
v 36.737 -87.684 36.400
v 44.399 -82.786 36.400
v 37.669 -74.264 36.400
v 35.389 -77.217 36.400
v 37.108 -73.554 36.400
v 34.304 -70.003 36.400
v 31.726 -75.499 36.400
v 30.043 -73.368 36.400
f 381 380 379 378 377 376 375 374 373 372 371 370 369 368 367 366 365
f 382 383 384 385 386 387 388 389 390 391 392 393 394 395 396 397 398
f 365 366 383 382
f 366 367 384 383
f 367 368 385 384
f 368 369 386 385
f 369 370 387 386
f 370 371 388 387
f 371 372 389 388
f 372 373 390 389
f 373 374 391 390
f 374 375 392 391
f 375 376 393 392
f 376 377 394 393
f 377 378 395 394
f 378 379 396 395
f 379 380 397 396
f 380 381 398 397
f 381 365 382 398
o sibeom_0028
usemtl sibeom
v 37.374 -98.711 0.000
v 45.787 -109.363 0.000
v 39.767 -100.280 0.000
v 42.757 -96.766 0.000
v 58.311 -117.921 0.000
v 55.470 -120.164 0.000
v 46.908 -110.783 0.000
v 55.321 -121.435 0.000
v 62.422 -115.827 0.000
v 58.085 -108.875 0.000
v 55.244 -111.118 0.000
v 47.953 -101.886 0.000
v 50.794 -99.643 0.000
v 46.868 -94.672 0.000
v 44.475 -93.103 0.000
v 37.374 -98.711 46.000
v 45.787 -109.363 46.000
v 39.767 -100.280 46.000
v 42.757 -96.766 46.000
v 58.311 -117.921 46.000
v 55.470 -120.164 46.000
v 46.908 -110.783 46.000
v 55.321 -121.435 46.000
v 62.422 -115.827 46.000
v 58.085 -108.875 46.000
v 55.244 -111.118 46.000
v 47.953 -101.886 46.000
v 50.794 -99.643 46.000
v 46.868 -94.672 46.000
v 44.475 -93.103 46.000
f 413 412 411 410 409 408 407 406 405 404 403 402 401 400 399
f 414 415 416 417 418 419 420 421 422 423 424 425 426 427 428
f 399 400 415 414
f 400 401 416 415
f 401 402 417 416
f 402 403 418 417
f 403 404 419 418
f 404 405 420 419
f 405 406 421 420
f 406 407 422 421
f 407 408 423 422
f 408 409 424 423
f 409 410 425 424
f 410 411 426 425
f 411 412 427 426
f 412 413 428 427
f 413 399 414 428
o sibeom_0029
usemtl sibeom
v 49.224 -102.036 0.000
v 55.393 -109.847 0.000
v 61.075 -105.360 0.000
v 54.905 -97.549 0.000
v 49.224 -102.036 46.000
v 55.393 -109.847 46.000
v 61.075 -105.360 46.000
v 54.905 -97.549 46.000
f 432 431 430 429
f 433 434 435 436
f 429 430 434 433
f 430 431 435 434
f 431 432 436 435
f 432 429 433 436
o sibeom_0030
usemtl sibeom
v 46.376 -60.469 0.000
v 45.928 -64.282 0.000
v 49.854 -69.253 0.000
v 46.639 -63.721 0.000
v 55.160 -56.991 0.000
v 57.964 -60.542 0.000
v 60.954 -57.028 0.000
v 62.076 -58.448 0.000
v 57.105 -62.374 0.000
v 60.619 -65.363 0.000
v 72.393 -58.371 0.000
v 80.095 -69.584 0.000
v 87.906 -63.415 0.000
v 78.372 -51.343 0.000
v 75.270 -50.334 0.000
v 76.242 -53.025 0.000
v 73.999 -50.185 0.000
v 76.129 -48.502 0.000
v 73.886 -45.662 0.000
v 76.016 -43.979 0.000
v 72.651 -39.718 0.000
v 59.159 -50.374 0.000
v 60.841 -52.505 0.000
v 46.376 -60.469 27.000
v 45.928 -64.282 27.000
v 49.854 -69.253 27.000
v 46.639 -63.721 27.000
v 55.160 -56.991 27.000
v 57.964 -60.542 27.000
v 60.954 -57.028 27.000
v 62.076 -58.448 27.000
v 57.105 -62.374 27.000
v 60.619 -65.363 27.000
v 72.393 -58.371 27.000
v 80.095 -69.584 27.000
v 87.906 -63.415 27.000
v 78.372 -51.343 27.000
v 75.270 -50.334 27.000
v 76.242 -53.025 27.000
v 73.999 -50.185 27.000
v 76.129 -48.502 27.000
v 73.886 -45.662 27.000
v 76.016 -43.979 27.000
v 72.651 -39.718 27.000
v 59.159 -50.374 27.000
v 60.841 -52.505 27.000
f 459 458 457 456 455 454 453 452 451 450 449 448 447 446 445 444 443 442 441 440 439 438 437
f 460 461 462 463 464 465 466 467 468 469 470 471 472 473 474 475 476 477 478 479 480 481 482
f 437 438 461 460
f 438 439 462 461
f 439 440 463 462
f 440 441 464 463
f 441 442 465 464
f 442 443 466 465
f 443 444 467 466
f 444 445 468 467
f 445 446 469 468
f 446 447 470 469
f 447 448 471 470
f 448 449 472 471
f 449 450 473 472
f 450 451 474 473
f 451 452 475 474
f 452 453 476 475
f 453 454 477 476
f 454 455 478 477
f 455 456 479 478
f 456 457 480 479
f 457 458 481 480
f 458 459 482 481
f 459 437 460 482
o sibeom_0031
usemtl sibeom
v 82.899 -73.135 0.000
v 90.751 -83.077 0.000
v 96.581 -77.319 0.000
v 97.703 -78.739 0.000
v 97.404 -81.281 0.000
v 96.283 -79.861 0.000
v 91.312 -83.787 0.000
v 98.602 -93.018 0.000
v 125.587 -71.707 0.000
v 111.417 -55.225 0.000
v 100.055 -64.198 0.000
v 104.542 -69.879 0.000
v 99.047 -67.301 0.000
v 95.496 -70.105 0.000
v 98.861 -74.366 0.000
v 96.730 -76.048 0.000
v 93.365 -71.787 0.000
v 90.525 -74.031 0.000
v 88.580 -68.648 0.000
v 82.899 -73.135 43.000
v 90.751 -83.077 43.000
v 96.581 -77.319 43.000
v 97.703 -78.739 43.000
v 97.404 -81.281 43.000
v 96.283 -79.861 43.000
v 91.312 -83.787 43.000
v 98.602 -93.018 43.000
v 125.587 -71.707 43.000
v 111.417 -55.225 43.000
v 100.055 -64.198 43.000
v 104.542 -69.879 43.000
v 99.047 -67.301 43.000
v 95.496 -70.105 43.000
v 98.861 -74.366 43.000
v 96.730 -76.048 43.000
v 93.365 -71.787 43.000
v 90.525 -74.031 43.000
v 88.580 -68.648 43.000
f 501 500 499 498 497 496 495 494 493 492 491 490 489 488 487 486 485 484 483
f 502 503 504 505 506 507 508 509 510 511 512 513 514 515 516 517 518 519 520
f 483 484 503 502
f 484 485 504 503
f 485 486 505 504
f 486 487 506 505
f 487 488 507 506
f 488 489 508 507
f 489 490 509 508
f 490 491 510 509
f 491 492 511 510
f 492 493 512 511
f 493 494 513 512
f 494 495 514 513
f 495 496 515 514
f 496 497 516 515
f 497 498 517 516
f 498 499 518 517
f 499 500 519 518
f 500 501 520 519
f 501 483 502 520
o sibeom_0032
usemtl sibeom
v -25.784 -186.641 0.000
v -10.641 -205.814 0.000
v -5.670 -201.888 0.000
v -7.764 -197.777 0.000
v 2.177 -189.925 0.000
v 6.551 -191.083 0.000
v -1.260 -197.252 0.000
v 0.571 -198.112 0.000
v 16.194 -185.774 0.000
v 12.829 -181.513 0.000
v 9.428 -183.046 0.000
v 12.269 -180.803 0.000
v 2.174 -168.020 0.000
v -5.787 -175.460 0.000
v -4.105 -177.591 0.000
v -9.487 -179.535 0.000
v -6.534 -181.815 0.000
v -7.954 -182.937 0.000
v -9.636 -180.806 0.000
v -17.448 -186.975 0.000
v -20.103 -182.154 0.000
v -25.784 -186.641 100.600
v -10.641 -205.814 100.600
v -5.670 -201.888 100.600
v -7.764 -197.777 100.600
v 2.177 -189.925 100.600
v 6.551 -191.083 100.600
v -1.260 -197.252 100.600
v 0.571 -198.112 100.600
v 16.194 -185.774 100.600
v 12.829 -181.513 100.600
v 9.428 -183.046 100.600
v 12.269 -180.803 100.600
v 2.174 -168.020 100.600
v -5.787 -175.460 100.600
v -4.105 -177.591 100.600
v -9.487 -179.535 100.600
v -6.534 -181.815 100.600
v -7.954 -182.937 100.600
v -9.636 -180.806 100.600
v -17.448 -186.975 100.600
v -20.103 -182.154 100.600
f 541 540 539 538 537 536 535 534 533 532 531 530 529 528 527 526 525 524 523 522 521
f 542 543 544 545 546 547 548 549 550 551 552 553 554 555 556 557 558 559 560 561 562
f 521 522 543 542
f 522 523 544 543
f 523 524 545 544
f 524 525 546 545
f 525 526 547 546
f 526 527 548 547
f 527 528 549 548
f 528 529 550 549
f 529 530 551 550
f 530 531 552 551
f 531 532 553 552
f 532 533 554 553
f 533 534 555 554
f 534 535 556 555
f 535 536 557 556
f 536 537 558 557
f 537 538 559 558
f 538 539 560 559
f 539 540 561 560
f 540 541 562 561
f 541 521 542 562
o sibeom_0033
usemtl sibeom
v 61.228 -125.994 0.000
v 69.079 -135.936 0.000
v 74.050 -132.011 0.000
v 78.686 -136.421 0.000
v 73.901 -133.281 0.000
v 69.640 -136.646 0.000
v 76.931 -145.878 0.000
v 85.602 -137.877 0.000
v 81.115 -132.196 0.000
v 81.825 -131.635 0.000
v 86.723 -139.298 0.000
v 103.206 -125.127 0.000
v 97.597 -118.026 0.000
v 92.925 -119.410 0.000
v 96.326 -117.877 0.000
v 89.596 -109.355 0.000
v 77.674 -117.618 0.000
v 78.646 -120.310 0.000
v 73.824 -122.964 0.000
v 77.750 -127.935 0.000
v 75.620 -129.618 0.000
v 71.694 -124.647 0.000
v 69.563 -126.329 0.000
v 72.218 -131.151 0.000
v 68.293 -126.180 0.000
v 69.713 -125.058 0.000
v 66.909 -121.508 0.000
v 61.228 -125.994 62.200
v 69.079 -135.936 62.200
v 74.050 -132.011 62.200
v 78.686 -136.421 62.200
v 73.901 -133.281 62.200
v 69.640 -136.646 62.200
v 76.931 -145.878 62.200
v 85.602 -137.877 62.200
v 81.115 -132.196 62.200
v 81.825 -131.635 62.200
v 86.723 -139.298 62.200
v 103.206 -125.127 62.200
v 97.597 -118.026 62.200
v 92.925 -119.410 62.200
v 96.326 -117.877 62.200
v 89.596 -109.355 62.200
v 77.674 -117.618 62.200
v 78.646 -120.310 62.200
v 73.824 -122.964 62.200
v 77.750 -127.935 62.200
v 75.620 -129.618 62.200
v 71.694 -124.647 62.200
v 69.563 -126.329 62.200
v 72.218 -131.151 62.200
v 68.293 -126.180 62.200
v 69.713 -125.058 62.200
v 66.909 -121.508 62.200
f 589 588 587 586 585 584 583 582 581 580 579 578 577 576 575 574 573 572 571 570 569 568 567 566 565 564 563
f 590 591 592 593 594 595 596 597 598 599 600 601 602 603 604 605 606 607 608 609 610 611 612 613 614 615 616
f 563 564 591 590
f 564 565 592 591
f 565 566 593 592
f 566 567 594 593
f 567 568 595 594
f 568 569 596 595
f 569 570 597 596
f 570 571 598 597
f 571 572 599 598
f 572 573 600 599
f 573 574 601 600
f 574 575 602 601
f 575 576 603 602
f 576 577 604 603
f 577 578 605 604
f 578 579 606 605
f 579 580 607 606
f 580 581 608 607
f 581 582 609 608
f 582 583 610 609
f 583 584 611 610
f 584 585 612 611
f 585 586 613 612
f 586 587 614 613
f 587 588 615 614
f 588 589 616 615
f 589 563 590 616
o sibeom_0034
usemtl sibeom
v 38.285 -178.705 0.000
v 46.137 -188.647 0.000
v 51.818 -184.160 0.000
v 53.500 -186.290 0.000
v 51.668 -185.431 0.000
v 46.697 -189.357 0.000
v 54.549 -199.299 0.000
v 59.520 -195.373 0.000
v 58.398 -193.953 0.000
v 80.824 -178.548 0.000
v 74.655 -170.737 0.000
v 71.253 -172.270 0.000
v 74.094 -170.026 0.000
v 67.364 -161.505 0.000
v 55.441 -169.768 0.000
v 56.825 -174.440 0.000
v 54.432 -172.871 0.000
v 50.882 -175.675 0.000
v 54.808 -180.646 0.000
v 52.677 -182.328 0.000
v 48.751 -177.357 0.000
v 46.621 -179.040 0.000
v 43.966 -174.218 0.000
v 38.285 -178.705 78.200
v 46.137 -188.647 78.200
v 51.818 -184.160 78.200
v 53.500 -186.290 78.200
v 51.668 -185.431 78.200
v 46.697 -189.357 78.200
v 54.549 -199.299 78.200
v 59.520 -195.373 78.200
v 58.398 -193.953 78.200
v 80.824 -178.548 78.200
v 74.655 -170.737 78.200
v 71.253 -172.270 78.200
v 74.094 -170.026 78.200
v 67.364 -161.505 78.200
v 55.441 -169.768 78.200
v 56.825 -174.440 78.200
v 54.432 -172.871 78.200
v 50.882 -175.675 78.200
v 54.808 -180.646 78.200
v 52.677 -182.328 78.200
v 48.751 -177.357 78.200
v 46.621 -179.040 78.200
v 43.966 -174.218 78.200
f 639 638 637 636 635 634 633 632 631 630 629 628 627 626 625 624 623 622 621 620 619 618 617
f 640 641 642 643 644 645 646 647 648 649 650 651 652 653 654 655 656 657 658 659 660 661 662
f 617 618 641 640
f 618 619 642 641
f 619 620 643 642
f 620 621 644 643
f 621 622 645 644
f 622 623 646 645
f 623 624 647 646
f 624 625 648 647
f 625 626 649 648
f 626 627 650 649
f 627 628 651 650
f 628 629 652 651
f 629 630 653 652
f 630 631 654 653
f 631 632 655 654
f 632 633 656 655
f 633 634 657 656
f 634 635 658 657
f 635 636 659 658
f 636 637 660 659
f 637 638 661 660
f 638 639 662 661
f 639 617 640 662
o sibeom_0035
usemtl sibeom
v -31.869 -232.956 0.000
v -30.186 -235.086 0.000
v -35.157 -239.012 0.000
v -31.231 -243.983 0.000
v -34.746 -240.993 0.000
v -40.576 -246.751 0.000
v -33.285 -255.983 0.000
v -27.754 -252.767 0.000
v -29.997 -249.926 0.000
v -28.577 -248.805 0.000
v -25.212 -253.065 0.000
v -0.506 -234.707 0.000
v -13.966 -217.664 0.000
v -31.869 -232.956 123.000
v -30.186 -235.086 123.000
v -35.157 -239.012 123.000
v -31.231 -243.983 123.000
v -34.746 -240.993 123.000
v -40.576 -246.751 123.000
v -33.285 -255.983 123.000
v -27.754 -252.767 123.000
v -29.997 -249.926 123.000
v -28.577 -248.805 123.000
v -25.212 -253.065 123.000
v -0.506 -234.707 123.000
v -13.966 -217.664 123.000
f 675 674 673 672 671 670 669 668 667 666 665 664 663
f 676 677 678 679 680 681 682 683 684 685 686 687 688
f 663 664 677 676
f 664 665 678 677
f 665 666 679 678
f 666 667 680 679
f 667 668 681 680
f 668 669 682 681
f 669 670 683 682
f 670 671 684 683
f 671 672 685 684
f 672 673 686 685
f 673 674 687 686
f 674 675 688 687
f 675 663 676 688
o sibeom_0036
usemtl sibeom
v -43.606 -234.154 0.000
v -37.437 -241.966 0.000
v -29.589 -230.002 0.000
v -31.832 -227.162 0.000
v -33.963 -228.844 0.000
v -35.084 -227.424 0.000
v -43.606 -234.154 123.000
v -37.437 -241.966 123.000
v -29.589 -230.002 123.000
v -31.832 -227.162 123.000
v -33.963 -228.844 123.000
v -35.084 -227.424 123.000
f 694 693 692 691 690 689
f 695 696 697 698 699 700
f 689 690 696 695
f 690 691 697 696
f 691 692 698 697
f 692 693 699 698
f 693 694 700 699
f 694 689 695 700
o sibeom_0037
usemtl sibeom
v 23.569 -249.132 0.000
v 29.178 -256.233 0.000
v 36.989 -250.064 0.000
v 32.579 -254.700 0.000
v 36.505 -259.671 0.000
v 35.084 -260.793 0.000
v 31.869 -255.261 0.000
v 26.748 -260.458 0.000
v 34.600 -270.400 0.000
v 39.571 -266.474 0.000
v 38.187 -261.802 0.000
v 39.870 -263.932 0.000
v 42.561 -262.960 0.000
v 39.720 -265.203 0.000
v 41.403 -267.333 0.000
v 49.364 -259.893 0.000
v 56.578 -258.808 0.000
v 65.810 -251.517 0.000
v 62.295 -248.527 0.000
v 65.136 -246.284 0.000
v 56.986 -238.884 0.000
v 58.406 -237.763 0.000
v 53.919 -232.081 0.000
v 43.267 -240.494 0.000
v 44.240 -243.185 0.000
v 43.118 -241.765 0.000
v 37.586 -244.981 0.000
v 36.053 -241.579 0.000
v 33.923 -243.262 0.000
v 32.801 -241.841 0.000
v 23.569 -249.132 110.200
v 29.178 -256.233 110.200
v 36.989 -250.064 110.200
v 32.579 -254.700 110.200
v 36.505 -259.671 110.200
v 35.084 -260.793 110.200
v 31.869 -255.261 110.200
v 26.748 -260.458 110.200
v 34.600 -270.400 110.200
v 39.571 -266.474 110.200
v 38.187 -261.802 110.200
v 39.870 -263.932 110.200
v 42.561 -262.960 110.200
v 39.720 -265.203 110.200
v 41.403 -267.333 110.200
v 49.364 -259.893 110.200
v 56.578 -258.808 110.200
v 65.810 -251.517 110.200
v 62.295 -248.527 110.200
v 65.136 -246.284 110.200
v 56.986 -238.884 110.200
v 58.406 -237.763 110.200
v 53.919 -232.081 110.200
v 43.267 -240.494 110.200
v 44.240 -243.185 110.200
v 43.118 -241.765 110.200
v 37.586 -244.981 110.200
v 36.053 -241.579 110.200
v 33.923 -243.262 110.200
v 32.801 -241.841 110.200
f 730 729 728 727 726 725 724 723 722 721 720 719 718 717 716 715 714 713 712 711 710 709 708 707 706 705 704 703 702 701
f 731 732 733 734 735 736 737 738 739 740 741 742 743 744 745 746 747 748 749 750 751 752 753 754 755 756 757 758 759 760
f 701 702 732 731
f 702 703 733 732
f 703 704 734 733
f 704 705 735 734
f 705 706 736 735
f 706 707 737 736
f 707 708 738 737
f 708 709 739 738
f 709 710 740 739
f 710 711 741 740
f 711 712 742 741
f 712 713 743 742
f 713 714 744 743
f 714 715 745 744
f 715 716 746 745
f 716 717 747 746
f 717 718 748 747
f 718 719 749 748
f 719 720 750 749
f 720 721 751 750
f 721 722 752 751
f 722 723 753 752
f 723 724 754 753
f 724 725 755 754
f 725 726 756 755
f 726 727 757 756
f 727 728 758 757
f 728 729 759 758
f 729 730 760 759
f 730 701 731 760
o sibeom_0038
usemtl sibeom
v 15.991 -308.157 0.000
v 22.160 -315.969 0.000
v 18.460 -320.044 0.000
v 26.312 -329.986 0.000
v 30.573 -326.621 0.000
v 30.310 -323.369 0.000
v 31.432 -324.789 0.000
v 35.544 -322.695 0.000
v 32.554 -326.209 0.000
v 43.916 -317.236 0.000
v 36.403 -320.863 0.000
v 42.794 -315.816 0.000
v 41.261 -312.414 0.000
v 46.308 -318.805 0.000
v 58.530 -308.000 0.000
v 54.007 -308.113 0.000
v 56.848 -305.870 0.000
v 49.407 -297.909 0.000
v 48.435 -295.218 0.000
v 50.566 -293.536 0.000
v 47.761 -289.985 0.000
v 34.418 -299.370 0.000
v 37.222 -302.920 0.000
v 32.849 -301.762 0.000
v 35.503 -306.584 0.000
v 32.138 -302.323 0.000
v 30.008 -304.006 0.000
v 26.494 -301.016 0.000
v 15.991 -308.157 132.600
v 22.160 -315.969 132.600
v 18.460 -320.044 132.600
v 26.312 -329.986 132.600
v 30.573 -326.621 132.600
v 30.310 -323.369 132.600
v 31.432 -324.789 132.600
v 35.544 -322.695 132.600
v 32.554 -326.209 132.600
v 43.916 -317.236 132.600
v 36.403 -320.863 132.600
v 42.794 -315.816 132.600
v 41.261 -312.414 132.600
v 46.308 -318.805 132.600
v 58.530 -308.000 132.600
v 54.007 -308.113 132.600
v 56.848 -305.870 132.600
v 49.407 -297.909 132.600
v 48.435 -295.218 132.600
v 50.566 -293.536 132.600
v 47.761 -289.985 132.600
v 34.418 -299.370 132.600
v 37.222 -302.920 132.600
v 32.849 -301.762 132.600
v 35.503 -306.584 132.600
v 32.138 -302.323 132.600
v 30.008 -304.006 132.600
v 26.494 -301.016 132.600
f 788 787 786 785 784 783 782 781 780 779 778 777 776 775 774 773 772 771 770 769 768 767 766 765 764 763 762 761
f 789 790 791 792 793 794 795 796 797 798 799 800 801 802 803 804 805 806 807 808 809 810 811 812 813 814 815 816
f 761 762 790 789
f 762 763 791 790
f 763 764 792 791
f 764 765 793 792
f 765 766 794 793
f 766 767 795 794
f 767 768 796 795
f 768 769 797 796
f 769 770 798 797
f 770 771 799 798
f 771 772 800 799
f 772 773 801 800
f 773 774 802 801
f 774 775 803 802
f 775 776 804 803
f 776 777 805 804
f 777 778 806 805
f 778 779 807 806
f 779 780 808 807
f 780 781 809 808
f 781 782 810 809
f 782 783 811 810
f 783 784 812 811
f 784 785 813 812
f 785 786 814 813
f 786 787 815 814
f 787 788 816 815
f 788 761 789 816
o sibeom_0039
usemtl sibeom
v 188.731 -121.001 0.000
v 177.220 -131.245 0.000
v 183.389 -139.057 0.000
v 186.791 -137.523 0.000
v 183.950 -139.767 0.000
v 187.876 -144.738 0.000
v 194.118 -140.961 0.000
v 188.997 -146.158 0.000
v 203.579 -164.621 0.000
v 209.260 -160.135 0.000
v 207.017 -157.294 0.000
v 218.528 -147.050 0.000
v 214.042 -141.369 0.000
v 220.433 -136.322 0.000
v 215.946 -130.640 0.000
v 221.292 -134.490 0.000
v 209.515 -119.577 0.000
v 206.824 -120.549 0.000
v 208.954 -118.867 0.000
v 202.785 -111.055 0.000
v 190.862 -119.318 0.000
v 190.563 -121.860 0.000
v 192.544 -121.449 0.000
v 190.414 -123.131 0.000
v 188.731 -121.001 196.500
v 177.220 -131.245 196.500
v 183.389 -139.057 196.500
v 186.791 -137.523 196.500
v 183.950 -139.767 196.500
v 187.876 -144.738 196.500
v 194.118 -140.961 196.500
v 188.997 -146.158 196.500
v 203.579 -164.621 196.500
v 209.260 -160.135 196.500
v 207.017 -157.294 196.500
v 218.528 -147.050 196.500
v 214.042 -141.369 196.500
v 220.433 -136.322 196.500
v 215.946 -130.640 196.500
v 221.292 -134.490 196.500
v 209.515 -119.577 196.500
v 206.824 -120.549 196.500
v 208.954 -118.867 196.500
v 202.785 -111.055 196.500
v 190.862 -119.318 196.500
v 190.563 -121.860 196.500
v 192.544 -121.449 196.500
v 190.414 -123.131 196.500
f 840 839 838 837 836 835 834 833 832 831 830 829 828 827 826 825 824 823 822 821 820 819 818 817
f 841 842 843 844 845 846 847 848 849 850 851 852 853 854 855 856 857 858 859 860 861 862 863 864
f 817 818 842 841
f 818 819 843 842
f 819 820 844 843
f 820 821 845 844
f 821 822 846 845
f 822 823 847 846
f 823 824 848 847
f 824 825 849 848
f 825 826 850 849
f 826 827 851 850
f 827 828 852 851
f 828 829 853 852
f 829 830 854 853
f 830 831 855 854
f 831 832 856 855
f 832 833 857 856
f 833 834 858 857
f 834 835 859 858
f 835 836 860 859
f 836 837 861 860
f 837 838 862 861
f 838 839 863 862
f 839 840 864 863
f 840 817 841 864
o sibeom_0040
usemtl sibeom
v 105.690 -224.634 0.000
v 108.195 -230.726 0.000
v 104.120 -227.026 0.000
v 94.889 -234.317 0.000
v 110.031 -253.491 0.000
v 115.712 -249.004 0.000
v 110.927 -245.865 0.000
v 113.767 -243.622 0.000
v 109.842 -238.651 0.000
v 113.094 -238.389 0.000
v 115.898 -241.939 0.000
v 121.280 -239.995 0.000
v 117.766 -237.005 0.000
v 119.186 -235.883 0.000
v 121.990 -239.434 0.000
v 129.802 -233.265 0.000
v 128.269 -229.863 0.000
v 130.512 -232.704 0.000
v 133.352 -230.460 0.000
v 120.603 -212.856 0.000
v 105.690 -224.634 91.000
v 108.195 -230.726 91.000
v 104.120 -227.026 91.000
v 94.889 -234.317 91.000
v 110.031 -253.491 91.000
v 115.712 -249.004 91.000
v 110.927 -245.865 91.000
v 113.767 -243.622 91.000
v 109.842 -238.651 91.000
v 113.094 -238.389 91.000
v 115.898 -241.939 91.000
v 121.280 -239.995 91.000
v 117.766 -237.005 91.000
v 119.186 -235.883 91.000
v 121.990 -239.434 91.000
v 129.802 -233.265 91.000
v 128.269 -229.863 91.000
v 130.512 -232.704 91.000
v 133.352 -230.460 91.000
v 120.603 -212.856 91.000
f 884 883 882 881 880 879 878 877 876 875 874 873 872 871 870 869 868 867 866 865
f 885 886 887 888 889 890 891 892 893 894 895 896 897 898 899 900 901 902 903 904
f 865 866 886 885
f 866 867 887 886
f 867 868 888 887
f 868 869 889 888
f 869 870 890 889
f 870 871 891 890
f 871 872 892 891
f 872 873 893 892
f 873 874 894 893
f 874 875 895 894
f 875 876 896 895
f 876 877 897 896
f 877 878 898 897
f 878 879 899 898
f 879 880 900 899
f 880 881 901 900
f 881 882 902 901
f 882 883 903 902
f 883 884 904 903
f 884 865 885 904
o sibeom_0041
usemtl sibeom
v 155.927 -213.785 0.000
v 171.631 -233.669 0.000
v 177.312 -229.182 0.000
v 172.526 -226.043 0.000
v 174.657 -224.360 0.000
v 171.441 -218.829 0.000
v 172.861 -217.707 0.000
v 176.787 -222.678 0.000
v 191.401 -213.442 0.000
v 189.868 -210.041 0.000
v 191.551 -212.171 0.000
v 194.391 -209.928 0.000
v 188.073 -203.388 0.000
v 185.382 -204.360 0.000
v 187.661 -201.407 0.000
v 184.260 -202.940 0.000
v 187.811 -200.136 0.000
v 182.202 -193.034 0.000
v 155.927 -213.785 87.800
v 171.631 -233.669 87.800
v 177.312 -229.182 87.800
v 172.526 -226.043 87.800
v 174.657 -224.360 87.800
v 171.441 -218.829 87.800
v 172.861 -217.707 87.800
v 176.787 -222.678 87.800
v 191.401 -213.442 87.800
v 189.868 -210.041 87.800
v 191.551 -212.171 87.800
v 194.391 -209.928 87.800
v 188.073 -203.388 87.800
v 185.382 -204.360 87.800
v 187.661 -201.407 87.800
v 184.260 -202.940 87.800
v 187.811 -200.136 87.800
v 182.202 -193.034 87.800
f 922 921 920 919 918 917 916 915 914 913 912 911 910 909 908 907 906 905
f 923 924 925 926 927 928 929 930 931 932 933 934 935 936 937 938 939 940
f 905 906 924 923
f 906 907 925 924
f 907 908 926 925
f 908 909 927 926
f 909 910 928 927
f 910 911 929 928
f 911 912 930 929
f 912 913 931 930
f 913 914 932 931
f 914 915 933 932
f 915 916 934 933
f 916 917 935 934
f 917 918 936 935
f 918 919 937 936
f 919 920 938 937
f 920 921 939 938
f 921 922 940 939
f 922 905 923 940
o sibeom_0042
usemtl sibeom
v 180.939 -236.695 0.000
v 183.033 -240.806 0.000
v 182.771 -237.554 0.000
v 185.014 -240.395 0.000
v 179.482 -243.610 0.000
v 179.894 -245.592 0.000
v 183.856 -244.769 0.000
v 181.576 -247.722 0.000
v 189.577 -256.393 0.000
v 195.258 -251.906 0.000
v 190.921 -244.954 0.000
v 191.930 -241.851 0.000
v 185.760 -234.040 0.000
v 180.939 -236.695 84.400
v 183.033 -240.806 84.400
v 182.771 -237.554 84.400
v 185.014 -240.395 84.400
v 179.482 -243.610 84.400
v 179.894 -245.592 84.400
v 183.856 -244.769 84.400
v 181.576 -247.722 84.400
v 189.577 -256.393 84.400
v 195.258 -251.906 84.400
v 190.921 -244.954 84.400
v 191.930 -241.851 84.400
v 185.760 -234.040 84.400
f 953 952 951 950 949 948 947 946 945 944 943 942 941
f 954 955 956 957 958 959 960 961 962 963 964 965 966
f 941 942 955 954
f 942 943 956 955
f 943 944 957 956
f 944 945 958 957
f 945 946 959 958
f 946 947 960 959
f 947 948 961 960
f 948 949 962 961
f 949 950 963 962
f 950 951 964 963
f 951 952 965 964
f 952 953 966 965
f 953 941 954 966
o sibeom_0043
usemtl sibeom
v 239.759 -141.813 0.000
v 248.172 -152.465 0.000
v 242.640 -155.681 0.000
v 241.631 -158.784 0.000
v 246.679 -165.175 0.000
v 251.202 -165.062 0.000
v 248.361 -167.305 0.000
v 255.652 -176.537 0.000
v 268.434 -166.442 0.000
v 271.424 -162.928 0.000
v 269.742 -160.797 0.000
v 272.134 -162.367 0.000
v 278.376 -158.590 0.000
v 281.366 -155.076 0.000
v 277.852 -152.086 0.000
v 278.150 -149.544 0.000
v 285.252 -143.936 0.000
v 280.765 -138.255 0.000
v 283.606 -136.012 0.000
v 279.083 -136.125 0.000
v 282.633 -133.320 0.000
v 277.586 -126.929 0.000
v 274.035 -129.733 0.000
v 271.792 -126.893 0.000
v 275.754 -126.070 0.000
v 274.072 -123.939 0.000
v 271.231 -126.183 0.000
v 274.221 -122.668 0.000
v 269.585 -118.258 0.000
v 261.773 -124.427 0.000
v 262.746 -127.119 0.000
v 261.624 -125.698 0.000
v 248.991 -134.522 0.000
v 250.674 -136.653 0.000
v 248.132 -136.354 0.000
v 248.543 -138.335 0.000
v 246.861 -136.205 0.000
v 239.759 -141.813 196.500
v 248.172 -152.465 196.500
v 242.640 -155.681 196.500
v 241.631 -158.784 196.500
v 246.679 -165.175 196.500
v 251.202 -165.062 196.500
v 248.361 -167.305 196.500
v 255.652 -176.537 196.500
v 268.434 -166.442 196.500
v 271.424 -162.928 196.500
v 269.742 -160.797 196.500
v 272.134 -162.367 196.500
v 278.376 -158.590 196.500
v 281.366 -155.076 196.500
v 277.852 -152.086 196.500
v 278.150 -149.544 196.500
v 285.252 -143.936 196.500
v 280.765 -138.255 196.500
v 283.606 -136.012 196.500
v 279.083 -136.125 196.500
v 282.633 -133.320 196.500
v 277.586 -126.929 196.500
v 274.035 -129.733 196.500
v 271.792 -126.893 196.500
v 275.754 -126.070 196.500
v 274.072 -123.939 196.500
v 271.231 -126.183 196.500
v 274.221 -122.668 196.500
v 269.585 -118.258 196.500
v 261.773 -124.427 196.500
v 262.746 -127.119 196.500
v 261.624 -125.698 196.500
v 248.991 -134.522 196.500
v 250.674 -136.653 196.500
v 248.132 -136.354 196.500
v 248.543 -138.335 196.500
v 246.861 -136.205 196.500
f 1003 1002 1001 1000 999 998 997 996 995 994 993 992 991 990 989 988 987 986 985 984 983 982 981 980 979 978 977 976 975 974 973 972 971 970 969 968 967
f 1004 1005 1006 1007 1008 1009 1010 1011 1012 1013 1014 1015 1016 1017 1018 1019 1020 1021 1022 1023 1024 1025 1026 1027 1028 1029 1030 1031 1032 1033 1034 1035 1036 1037 1038 1039 1040
f 967 968 1005 1004
f 968 969 1006 1005
f 969 970 1007 1006
f 970 971 1008 1007
f 971 972 1009 1008
f 972 973 1010 1009
f 973 974 1011 1010
f 974 975 1012 1011
f 975 976 1013 1012
f 976 977 1014 1013
f 977 978 1015 1014
f 978 979 1016 1015
f 979 980 1017 1016
f 980 981 1018 1017
f 981 982 1019 1018
f 982 983 1020 1019
f 983 984 1021 1020
f 984 985 1022 1021
f 985 986 1023 1022
f 986 987 1024 1023
f 987 988 1025 1024
f 988 989 1026 1025
f 989 990 1027 1026
f 990 991 1028 1027
f 991 992 1029 1028
f 992 993 1030 1029
f 993 994 1031 1030
f 994 995 1032 1031
f 995 996 1033 1032
f 996 997 1034 1033
f 997 998 1035 1034
f 998 999 1036 1035
f 999 1000 1037 1036
f 1000 1001 1038 1037
f 1001 1002 1039 1038
f 1002 1003 1040 1039
f 1003 967 1004 1040
o sibeom_0044
usemtl sibeom
v 304.913 -141.092 0.000
v 307.718 -144.642 0.000
v 307.270 -148.455 0.000
v 310.110 -146.212 0.000
v 316.840 -154.734 0.000
v 312.765 -151.034 0.000
v 305.664 -156.642 0.000
v 309.888 -159.071 0.000
v 308.468 -160.193 0.000
v 312.692 -162.622 0.000
v 311.272 -163.743 0.000
v 316.880 -170.844 0.000
v 325.402 -164.115 0.000
v 324.990 -162.133 0.000
v 326.112 -163.554 0.000
v 345.286 -148.411 0.000
v 337.434 -138.469 0.000
v 337.547 -142.993 0.000
v 334.743 -139.442 0.000
v 337.583 -137.199 0.000
v 333.359 -134.770 0.000
v 333.657 -132.228 0.000
v 326.928 -123.706 0.000
v 313.435 -134.362 0.000
v 316.538 -135.370 0.000
v 314.407 -137.053 0.000
v 312.725 -134.923 0.000
v 304.913 -141.092 94.400
v 307.718 -144.642 94.400
v 307.270 -148.455 94.400
v 310.110 -146.212 94.400
v 316.840 -154.734 94.400
v 312.765 -151.034 94.400
v 305.664 -156.642 94.400
v 309.888 -159.071 94.400
v 308.468 -160.193 94.400
v 312.692 -162.622 94.400
v 311.272 -163.743 94.400
v 316.880 -170.844 94.400
v 325.402 -164.115 94.400
v 324.990 -162.133 94.400
v 326.112 -163.554 94.400
v 345.286 -148.411 94.400
v 337.434 -138.469 94.400
v 337.547 -142.993 94.400
v 334.743 -139.442 94.400
v 337.583 -137.199 94.400
v 333.359 -134.770 94.400
v 333.657 -132.228 94.400
v 326.928 -123.706 94.400
v 313.435 -134.362 94.400
v 316.538 -135.370 94.400
v 314.407 -137.053 94.400
v 312.725 -134.923 94.400
f 1067 1066 1065 1064 1063 1062 1061 1060 1059 1058 1057 1056 1055 1054 1053 1052 1051 1050 1049 1048 1047 1046 1045 1044 1043 1042 1041
f 1068 1069 1070 1071 1072 1073 1074 1075 1076 1077 1078 1079 1080 1081 1082 1083 1084 1085 1086 1087 1088 1089 1090 1091 1092 1093 1094
f 1041 1042 1069 1068
f 1042 1043 1070 1069
f 1043 1044 1071 1070
f 1044 1045 1072 1071
f 1045 1046 1073 1072
f 1046 1047 1074 1073
f 1047 1048 1075 1074
f 1048 1049 1076 1075
f 1049 1050 1077 1076
f 1050 1051 1078 1077
f 1051 1052 1079 1078
f 1052 1053 1080 1079
f 1053 1054 1081 1080
f 1054 1055 1082 1081
f 1055 1056 1083 1082
f 1056 1057 1084 1083
f 1057 1058 1085 1084
f 1058 1059 1086 1085
f 1059 1060 1087 1086
f 1060 1061 1088 1087
f 1061 1062 1089 1088
f 1062 1063 1090 1089
f 1063 1064 1091 1090
f 1064 1065 1092 1091
f 1065 1066 1093 1092
f 1066 1067 1094 1093
f 1067 1041 1068 1094
o sibeom_0045
usemtl sibeom
v 81.444 -304.894 0.000
v 88.024 -314.686 0.000
v 83.913 -316.780 0.000
v 86.156 -319.621 0.000
v 88.287 -317.938 0.000
v 86.717 -320.331 0.000
v 94.008 -329.563 0.000
v 99.689 -325.076 0.000
v 96.473 -319.544 0.000
v 94.343 -321.227 0.000
v 91.539 -317.676 0.000
v 94.492 -319.956 0.000
v 96.360 -315.021 0.000
v 90.191 -307.210 0.000
v 86.790 -308.743 0.000
v 84.135 -303.922 0.000
v 81.444 -304.894 84.400
v 88.024 -314.686 84.400
v 83.913 -316.780 84.400
v 86.156 -319.621 84.400
v 88.287 -317.938 84.400
v 86.717 -320.331 84.400
v 94.008 -329.563 84.400
v 99.689 -325.076 84.400
v 96.473 -319.544 84.400
v 94.343 -321.227 84.400
v 91.539 -317.676 84.400
v 94.492 -319.956 84.400
v 96.360 -315.021 84.400
v 90.191 -307.210 84.400
v 86.790 -308.743 84.400
v 84.135 -303.922 84.400
f 1110 1109 1108 1107 1106 1105 1104 1103 1102 1101 1100 1099 1098 1097 1096 1095
f 1111 1112 1113 1114 1115 1116 1117 1118 1119 1120 1121 1122 1123 1124 1125 1126
f 1095 1096 1112 1111
f 1096 1097 1113 1112
f 1097 1098 1114 1113
f 1098 1099 1115 1114
f 1099 1100 1116 1115
f 1100 1101 1117 1116
f 1101 1102 1118 1117
f 1102 1103 1119 1118
f 1103 1104 1120 1119
f 1104 1105 1121 1120
f 1105 1106 1122 1121
f 1106 1107 1123 1122
f 1107 1108 1124 1123
f 1108 1109 1125 1124
f 1109 1110 1126 1125
f 1110 1095 1111 1126
o sibeom_0046
usemtl sibeom
v 30.464 -344.003 0.000
v 26.053 -348.639 0.000
v 33.905 -358.580 0.000
v 38.727 -355.926 0.000
v 34.466 -359.291 0.000
v 35.588 -360.711 0.000
v 40.558 -356.785 0.000
v 43.512 -359.065 0.000
v 46.352 -356.821 0.000
v 40.744 -349.720 0.000
v 38.614 -351.403 0.000
v 30.464 -344.003 84.400
v 26.053 -348.639 84.400
v 33.905 -358.580 84.400
v 38.727 -355.926 84.400
v 34.466 -359.291 84.400
v 35.588 -360.711 84.400
v 40.558 -356.785 84.400
v 43.512 -359.065 84.400
v 46.352 -356.821 84.400
v 40.744 -349.720 84.400
v 38.614 -351.403 84.400
f 1137 1136 1135 1134 1133 1132 1131 1130 1129 1128 1127
f 1138 1139 1140 1141 1142 1143 1144 1145 1146 1147 1148
f 1127 1128 1139 1138
f 1128 1129 1140 1139
f 1129 1130 1141 1140
f 1130 1131 1142 1141
f 1131 1132 1143 1142
f 1132 1133 1144 1143
f 1133 1134 1145 1144
f 1134 1135 1146 1145
f 1135 1136 1147 1146
f 1136 1137 1148 1147
f 1137 1127 1138 1148
o sibeom_0047
usemtl sibeom
v 44.073 -359.775 0.000
v 43.213 -361.607 0.000
v 47.139 -366.578 0.000
v 44.000 -371.363 0.000
v 48.971 -367.437 0.000
v 48.148 -363.475 0.000
v 44.073 -359.775 84.400
v 43.213 -361.607 84.400
v 47.139 -366.578 84.400
v 44.000 -371.363 84.400
v 48.971 -367.437 84.400
v 48.148 -363.475 84.400
f 1154 1153 1152 1151 1150 1149
f 1155 1156 1157 1158 1159 1160
f 1149 1150 1156 1155
f 1150 1151 1157 1156
f 1151 1152 1158 1157
f 1152 1153 1159 1158
f 1153 1154 1160 1159
f 1154 1149 1155 1160
o sibeom_0048
usemtl sibeom
v 44.561 -372.073 0.000
v 45.682 -373.493 0.000
v 50.653 -369.567 0.000
v 51.775 -370.988 0.000
v 61.717 -363.136 0.000
v 58.763 -360.856 0.000
v 44.561 -372.073 84.400
v 45.682 -373.493 84.400
v 50.653 -369.567 84.400
v 51.775 -370.988 84.400
v 61.717 -363.136 84.400
v 58.763 -360.856 84.400
f 1166 1165 1164 1163 1162 1161
f 1167 1168 1169 1170 1171 1172
f 1161 1162 1168 1167
f 1162 1163 1169 1168
f 1163 1164 1170 1169
f 1164 1165 1171 1170
f 1165 1166 1172 1171
f 1166 1161 1167 1172
o sibeom_0049
usemtl sibeom
v 52.336 -371.698 0.000
v 56.972 -376.108 0.000
v 61.943 -372.182 0.000
v 58.017 -367.211 0.000
v 52.336 -371.698 84.400
v 56.972 -376.108 84.400
v 61.943 -372.182 84.400
v 58.017 -367.211 84.400
f 1176 1175 1174 1173
f 1177 1178 1179 1180
f 1173 1174 1178 1177
f 1174 1175 1179 1178
f 1175 1176 1180 1179
f 1176 1173 1177 1180
o sibeom_0050
usemtl sibeom
v 72.966 -349.640 0.000
v 75.770 -353.190 0.000
v 70.388 -355.135 0.000
v 69.940 -358.948 0.000
v 67.697 -356.107 0.000
v 61.305 -361.155 0.000
v 62.988 -363.285 0.000
v 58.727 -366.650 0.000
v 62.653 -371.621 0.000
v 73.305 -363.209 0.000
v 72.893 -361.228 0.000
v 75.435 -361.526 0.000
v 72.070 -357.266 0.000
v 81.003 -352.517 0.000
v 81.302 -349.975 0.000
v 83.844 -350.273 0.000
v 82.424 -351.395 0.000
v 84.667 -354.236 0.000
v 96.029 -345.262 0.000
v 92.103 -340.291 0.000
v 89.561 -339.993 0.000
v 86.571 -343.507 0.000
v 84.328 -340.666 0.000
v 72.966 -349.640 75.000
v 75.770 -353.190 75.000
v 70.388 -355.135 75.000
v 69.940 -358.948 75.000
v 67.697 -356.107 75.000
v 61.305 -361.155 75.000
v 62.988 -363.285 75.000
v 58.727 -366.650 75.000
v 62.653 -371.621 75.000
v 73.305 -363.209 75.000
v 72.893 -361.228 75.000
v 75.435 -361.526 75.000
v 72.070 -357.266 75.000
v 81.003 -352.517 75.000
v 81.302 -349.975 75.000
v 83.844 -350.273 75.000
v 82.424 -351.395 75.000
v 84.667 -354.236 75.000
v 96.029 -345.262 75.000
v 92.103 -340.291 75.000
v 89.561 -339.993 75.000
v 86.571 -343.507 75.000
v 84.328 -340.666 75.000
f 1203 1202 1201 1200 1199 1198 1197 1196 1195 1194 1193 1192 1191 1190 1189 1188 1187 1186 1185 1184 1183 1182 1181
f 1204 1205 1206 1207 1208 1209 1210 1211 1212 1213 1214 1215 1216 1217 1218 1219 1220 1221 1222 1223 1224 1225 1226
f 1181 1182 1205 1204
f 1182 1183 1206 1205
f 1183 1184 1207 1206
f 1184 1185 1208 1207
f 1185 1186 1209 1208
f 1186 1187 1210 1209
f 1187 1188 1211 1210
f 1188 1189 1212 1211
f 1189 1190 1213 1212
f 1190 1191 1214 1213
f 1191 1192 1215 1214
f 1192 1193 1216 1215
f 1193 1194 1217 1216
f 1194 1195 1218 1217
f 1195 1196 1219 1218
f 1196 1197 1220 1219
f 1197 1198 1221 1220
f 1198 1199 1222 1221
f 1199 1200 1223 1222
f 1200 1201 1224 1223
f 1201 1202 1225 1224
f 1202 1203 1226 1225
f 1203 1181 1204 1226
o sibeom_0051
usemtl sibeom
v 123.192 -273.076 0.000
v 134.409 -287.279 0.000
v 141.212 -284.212 0.000
v 144.129 -292.286 0.000
v 146.259 -290.603 0.000
v 145.847 -288.622 0.000
v 140.651 -283.502 0.000
v 143.491 -281.259 0.000
v 137.883 -274.157 0.000
v 134.332 -276.962 0.000
v 135.192 -275.130 0.000
v 128.163 -269.150 0.000
v 123.192 -273.076 87.600
v 134.409 -287.279 87.600
v 141.212 -284.212 87.600
v 144.129 -292.286 87.600
v 146.259 -290.603 87.600
v 145.847 -288.622 87.600
v 140.651 -283.502 87.600
v 143.491 -281.259 87.600
v 137.883 -274.157 87.600
v 134.332 -276.962 87.600
v 135.192 -275.130 87.600
v 128.163 -269.150 87.600
f 1238 1237 1236 1235 1234 1233 1232 1231 1230 1229 1228 1227
f 1239 1240 1241 1242 1243 1244 1245 1246 1247 1248 1249 1250
f 1227 1228 1240 1239
f 1228 1229 1241 1240
f 1229 1230 1242 1241
f 1230 1231 1243 1242
f 1231 1232 1244 1243
f 1232 1233 1245 1244
f 1233 1234 1246 1245
f 1234 1235 1247 1246
f 1235 1236 1248 1247
f 1236 1237 1249 1248
f 1237 1238 1250 1249
f 1238 1227 1239 1250
o sibeom_0052
usemtl sibeom
v 141.139 -295.800 0.000
v 142.821 -297.931 0.000
v 147.792 -294.005 0.000
v 149.624 -294.864 0.000
v 158.856 -287.573 0.000
v 154.631 -285.144 0.000
v 141.139 -295.800 87.600
v 142.821 -297.931 87.600
v 147.792 -294.005 87.600
v 149.624 -294.864 87.600
v 158.856 -287.573 87.600
v 154.631 -285.144 87.600
f 1256 1255 1254 1253 1252 1251
f 1257 1258 1259 1260 1261 1262
f 1251 1252 1258 1257
f 1252 1253 1259 1258
f 1253 1254 1260 1259
f 1254 1255 1261 1260
f 1255 1256 1262 1261
f 1256 1251 1257 1262
o sibeom_0053
usemtl sibeom
v 158.444 -285.592 0.000
v 160.127 -287.723 0.000
v 149.475 -296.135 0.000
v 154.111 -300.545 0.000
v 171.154 -287.085 0.000
v 167.938 -281.554 0.000
v 164.125 -281.106 0.000
v 158.444 -285.592 78.000
v 160.127 -287.723 78.000
v 149.475 -296.135 78.000
v 154.111 -300.545 78.000
v 171.154 -287.085 78.000
v 167.938 -281.554 78.000
v 164.125 -281.106 78.000
f 1269 1268 1267 1266 1265 1264 1263
f 1270 1271 1272 1273 1274 1275 1276
f 1263 1264 1271 1270
f 1264 1265 1272 1271
f 1265 1266 1273 1272
f 1266 1267 1274 1273
f 1267 1268 1275 1274
f 1268 1269 1276 1275
f 1269 1263 1270 1276
o sibeom_0054
usemtl sibeom
v 167.938 -281.554 0.000
v 172.574 -285.964 0.000
v 169.209 -281.703 0.000
v 178.142 -276.954 0.000
v 177.170 -274.263 0.000
v 168.237 -279.012 0.000
v 167.938 -281.554 78.000
v 172.574 -285.964 78.000
v 169.209 -281.703 78.000
v 178.142 -276.954 78.000
v 177.170 -274.263 78.000
v 168.237 -279.012 78.000
f 1282 1281 1280 1279 1278 1277
f 1283 1284 1285 1286 1287 1288
f 1277 1278 1284 1283
f 1278 1279 1285 1284
f 1279 1280 1286 1285
f 1280 1281 1287 1286
f 1281 1282 1288 1287
f 1282 1277 1283 1288
o sibeom_0055
usemtl sibeom
v 170.254 -272.806 0.000
v 172.348 -276.918 0.000
v 177.319 -272.992 0.000
v 182.516 -278.112 0.000
v 193.878 -269.139 0.000
v 189.952 -264.168 0.000
v 183.860 -266.673 0.000
v 184.271 -268.655 0.000
v 180.196 -264.955 0.000
v 170.254 -272.806 62.000
v 172.348 -276.918 62.000
v 177.319 -272.992 62.000
v 182.516 -278.112 62.000
v 193.878 -269.139 62.000
v 189.952 -264.168 62.000
v 183.860 -266.673 62.000
v 184.271 -268.655 62.000
v 180.196 -264.955 62.000
f 1297 1296 1295 1294 1293 1292 1291 1290 1289
f 1298 1299 1300 1301 1302 1303 1304 1305 1306
f 1289 1290 1299 1298
f 1290 1291 1300 1299
f 1291 1292 1301 1300
f 1292 1293 1302 1301
f 1293 1294 1303 1302
f 1294 1295 1304 1303
f 1295 1296 1305 1304
f 1296 1297 1306 1305
f 1297 1289 1298 1306
o sibeom_0056
usemtl sibeom
v 214.799 -200.729 0.000
v 225.306 -215.492 0.000
v 230.277 -211.567 0.000
v 229.865 -209.586 0.000
v 232.258 -211.155 0.000
v 235.098 -208.912 0.000
v 229.490 -201.811 0.000
v 225.939 -204.615 0.000
v 226.912 -207.306 0.000
v 224.668 -204.465 0.000
v 226.799 -202.783 0.000
v 222.873 -197.812 0.000
v 221.453 -198.934 0.000
v 219.770 -196.803 0.000
v 214.799 -200.729 88.000
v 225.306 -215.492 88.000
v 230.277 -211.567 88.000
v 229.865 -209.586 88.000
v 232.258 -211.155 88.000
v 235.098 -208.912 88.000
v 229.490 -201.811 88.000
v 225.939 -204.615 88.000
v 226.912 -207.306 88.000
v 224.668 -204.465 88.000
v 226.799 -202.783 88.000
v 222.873 -197.812 88.000
v 221.453 -198.934 88.000
v 219.770 -196.803 88.000
f 1320 1319 1318 1317 1316 1315 1314 1313 1312 1311 1310 1309 1308 1307
f 1321 1322 1323 1324 1325 1326 1327 1328 1329 1330 1331 1332 1333 1334
f 1307 1308 1322 1321
f 1308 1309 1323 1322
f 1309 1310 1324 1323
f 1310 1311 1325 1324
f 1311 1312 1326 1325
f 1312 1313 1327 1326
f 1313 1314 1328 1327
f 1314 1315 1329 1328
f 1315 1316 1330 1329
f 1316 1317 1331 1330
f 1317 1318 1332 1331
f 1318 1319 1333 1332
f 1319 1320 1334 1333
f 1320 1307 1321 1334
o sibeom_0057
usemtl sibeom
v 232.109 -212.426 0.000
v 235.736 -219.939 0.000
v 237.455 -216.275 0.000
v 233.529 -211.304 0.000
v 232.109 -212.426 88.000
v 235.736 -219.939 88.000
v 237.455 -216.275 88.000
v 233.529 -211.304 88.000
f 1338 1337 1336 1335
f 1339 1340 1341 1342
f 1335 1336 1340 1339
f 1336 1337 1341 1340
f 1337 1338 1342 1341
f 1338 1335 1339 1342
o sibeom_0058
usemtl sibeom
v 230.914 -222.594 0.000
v 234.428 -225.584 0.000
v 239.399 -221.658 0.000
v 240.372 -224.349 0.000
v 250.463 -215.227 0.000
v 246.238 -212.798 0.000
v 233.456 -222.892 0.000
v 230.914 -222.594 84.800
v 234.428 -225.584 84.800
v 239.399 -221.658 84.800
v 240.372 -224.349 84.800
v 250.463 -215.227 84.800
v 246.238 -212.798 84.800
v 233.456 -222.892 84.800
f 1349 1348 1347 1346 1345 1344 1343
f 1350 1351 1352 1353 1354 1355 1356
f 1343 1344 1351 1350
f 1344 1345 1352 1351
f 1345 1346 1353 1352
f 1346 1347 1354 1353
f 1347 1348 1355 1354
f 1348 1349 1356 1355
f 1349 1343 1350 1356
o sibeom_0059
usemtl sibeom
v 241.082 -223.788 0.000
v 245.718 -228.198 0.000
v 250.689 -224.273 0.000
v 246.763 -219.302 0.000
v 241.082 -223.788 84.800
v 245.718 -228.198 84.800
v 250.689 -224.273 84.800
v 246.763 -219.302 84.800
f 1360 1359 1358 1357
f 1361 1362 1363 1364
f 1357 1358 1362 1361
f 1358 1359 1363 1362
f 1359 1360 1364 1363
f 1360 1357 1361 1364
o sibeom_0060
usemtl sibeom
v 250.051 -213.245 0.000
v 251.734 -215.376 0.000
v 247.473 -218.741 0.000
v 251.399 -223.712 0.000
v 262.051 -215.299 0.000
v 257.713 -208.347 0.000
v 250.051 -213.245 68.800
v 251.734 -215.376 68.800
v 247.473 -218.741 68.800
v 251.399 -223.712 68.800
v 262.051 -215.299 68.800
v 257.713 -208.347 68.800
f 1370 1369 1368 1367 1366 1365
f 1371 1372 1373 1374 1375 1376
f 1365 1366 1372 1371
f 1366 1367 1373 1372
f 1367 1368 1374 1373
f 1368 1369 1375 1374
f 1369 1370 1376 1375
f 1370 1365 1371 1376
o sibeom_0061
usemtl sibeom
v 261.151 -201.020 0.000
v 263.955 -204.571 0.000
v 269.487 -201.355 0.000
v 273.413 -206.326 0.000
v 285.485 -196.792 0.000
v 281.559 -191.821 0.000
v 278.307 -192.083 0.000
v 272.029 -201.654 0.000
v 270.907 -200.233 0.000
v 275.317 -195.598 0.000
v 271.803 -192.608 0.000
v 261.151 -201.020 56.000
v 263.955 -204.571 56.000
v 269.487 -201.355 56.000
v 273.413 -206.326 56.000
v 285.485 -196.792 56.000
v 281.559 -191.821 56.000
v 278.307 -192.083 56.000
v 272.029 -201.654 56.000
v 270.907 -200.233 56.000
v 275.317 -195.598 56.000
v 271.803 -192.608 56.000
f 1387 1386 1385 1384 1383 1382 1381 1380 1379 1378 1377
f 1388 1389 1390 1391 1392 1393 1394 1395 1396 1397 1398
f 1377 1378 1389 1388
f 1378 1379 1390 1389
f 1379 1380 1391 1390
f 1380 1381 1392 1391
f 1381 1382 1393 1392
f 1382 1383 1394 1393
f 1383 1384 1395 1394
f 1384 1385 1396 1395
f 1385 1386 1397 1396
f 1386 1387 1398 1397
f 1387 1377 1388 1398
o sibeom_0062
usemtl sibeom
v 268.777 -201.916 0.000
v 259.134 -207.226 0.000
v 262.761 -214.738 0.000
v 272.703 -206.887 0.000
v 268.777 -201.916 56.000
v 259.134 -207.226 56.000
v 262.761 -214.738 56.000
v 272.703 -206.887 56.000
f 1402 1401 1400 1399
f 1403 1404 1405 1406
f 1399 1400 1404 1403
f 1400 1401 1405 1404
f 1401 1402 1406 1405
f 1402 1399 1403 1406
o school_0063
usemtl school
v 23.763 122.566 0.000
v 21.372 123.836 0.000
v 16.583 138.786 0.000
v 10.463 146.405 0.000
v 0.623 149.485 0.000
v -4.717 148.706 0.000
v -9.257 146.115 0.000
v -11.997 142.375 0.000
v -13.326 137.486 0.000
v -12.737 131.606 0.000
v -10.447 126.405 0.000
v -6.407 123.335 0.000
v 1.013 121.525 0.000
v 3.633 122.405 0.000
v 3.633 115.836 0.000
v 5.283 109.316 0.000
v -1.797 102.116 0.000
v -3.017 103.505 0.000
v -18.507 89.975 0.000
v -9.738 79.396 0.000
v 16.153 101.586 0.000
v 19.733 109.116 0.000
v 21.373 118.566 0.000
v 24.214 120.216 0.000
v 23.763 122.566 16.100
v 21.372 123.836 16.100
v 16.583 138.786 16.100
v 10.463 146.405 16.100
v 0.623 149.485 16.100
v -4.717 148.706 16.100
v -9.257 146.115 16.100
v -11.997 142.375 16.100
v -13.326 137.486 16.100
v -12.737 131.606 16.100
v -10.447 126.405 16.100
v -6.407 123.335 16.100
v 1.013 121.525 16.100
v 3.633 122.405 16.100
v 3.633 115.836 16.100
v 5.283 109.316 16.100
v -1.797 102.116 16.100
v -3.017 103.505 16.100
v -18.507 89.975 16.100
v -9.738 79.396 16.100
v 16.153 101.586 16.100
v 19.733 109.116 16.100
v 21.373 118.566 16.100
v 24.214 120.216 16.100
f 1430 1429 1428 1427 1426 1425 1424 1423 1422 1421 1420 1419 1418 1417 1416 1415 1414 1413 1412 1411 1410 1409 1408 1407
f 1431 1432 1433 1434 1435 1436 1437 1438 1439 1440 1441 1442 1443 1444 1445 1446 1447 1448 1449 1450 1451 1452 1453 1454
f 1407 1408 1432 1431
f 1408 1409 1433 1432
f 1409 1410 1434 1433
f 1410 1411 1435 1434
f 1411 1412 1436 1435
f 1412 1413 1437 1436
f 1413 1414 1438 1437
f 1414 1415 1439 1438
f 1415 1416 1440 1439
f 1416 1417 1441 1440
f 1417 1418 1442 1441
f 1418 1419 1443 1442
f 1419 1420 1444 1443
f 1420 1421 1445 1444
f 1421 1422 1446 1445
f 1422 1423 1447 1446
f 1423 1424 1448 1447
f 1424 1425 1449 1448
f 1425 1426 1450 1449
f 1426 1427 1451 1450
f 1427 1428 1452 1451
f 1428 1429 1453 1452
f 1429 1430 1454 1453
f 1430 1407 1431 1454
o school_0064
usemtl school
v -48.047 256.306 0.000
v -56.947 249.005 0.000
v 36.963 133.786 0.000
v 37.853 134.036 0.000
v 45.873 140.616 0.000
v 34.393 154.636 0.000
v 37.583 157.116 0.000
v 31.863 164.466 0.000
v 27.773 162.806 0.000
v 17.643 175.795 0.000
v 23.433 179.815 0.000
v 11.453 195.186 0.000
v 5.713 189.916 0.000
v -10.517 209.846 0.000
v -7.807 213.086 0.000
v -13.667 220.225 0.000
v -14.717 219.365 0.000
v -29.517 237.396 0.000
v -31.297 235.946 0.000
v -48.047 256.306 18.100
v -56.947 249.005 18.100
v 36.963 133.786 18.100
v 37.853 134.036 18.100
v 45.873 140.616 18.100
v 34.393 154.636 18.100
v 37.583 157.116 18.100
v 31.863 164.466 18.100
v 27.773 162.806 18.100
v 17.643 175.795 18.100
v 23.433 179.815 18.100
v 11.453 195.186 18.100
v 5.713 189.916 18.100
v -10.517 209.846 18.100
v -7.807 213.086 18.100
v -13.667 220.225 18.100
v -14.717 219.365 18.100
v -29.517 237.396 18.100
v -31.297 235.946 18.100
f 1473 1472 1471 1470 1469 1468 1467 1466 1465 1464 1463 1462 1461 1460 1459 1458 1457 1456 1455
f 1474 1475 1476 1477 1478 1479 1480 1481 1482 1483 1484 1485 1486 1487 1488 1489 1490 1491 1492
f 1455 1456 1475 1474
f 1456 1457 1476 1475
f 1457 1458 1477 1476
f 1458 1459 1478 1477
f 1459 1460 1479 1478
f 1460 1461 1480 1479
f 1461 1462 1481 1480
f 1462 1463 1482 1481
f 1463 1464 1483 1482
f 1464 1465 1484 1483
f 1465 1466 1485 1484
f 1466 1467 1486 1485
f 1467 1468 1487 1486
f 1468 1469 1488 1487
f 1469 1470 1489 1488
f 1470 1471 1490 1489
f 1471 1472 1491 1490
f 1472 1473 1492 1491
f 1473 1455 1474 1492
o school_0065
usemtl school
v -198.187 390.996 0.000
v -207.477 384.016 0.000
v -123.097 276.155 0.000
v -133.128 267.375 0.000
v -119.607 250.135 0.000
v -84.457 277.726 0.000
v -97.547 295.225 0.000
v -114.147 283.335 0.000
v -120.037 290.726 0.000
v -118.257 292.015 0.000
v -119.197 293.226 0.000
v -117.757 294.345 0.000
v -128.677 308.446 0.000
v -131.787 306.026 0.000
v -147.507 326.225 0.000
v -141.858 330.625 0.000
v -153.577 345.685 0.000
v -159.037 340.846 0.000
v -180.137 367.975 0.000
v -177.497 370.435 0.000
v -183.787 378.345 0.000
v -186.497 376.205 0.000
v -198.187 390.996 16.000
v -207.477 384.016 16.000
v -123.097 276.155 16.000
v -133.128 267.375 16.000
v -119.607 250.135 16.000
v -84.457 277.726 16.000
v -97.547 295.225 16.000
v -114.147 283.335 16.000
v -120.037 290.726 16.000
v -118.257 292.015 16.000
v -119.197 293.226 16.000
v -117.757 294.345 16.000
v -128.677 308.446 16.000
v -131.787 306.026 16.000
v -147.507 326.225 16.000
v -141.858 330.625 16.000
v -153.577 345.685 16.000
v -159.037 340.846 16.000
v -180.137 367.975 16.000
v -177.497 370.435 16.000
v -183.787 378.345 16.000
v -186.497 376.205 16.000
f 1514 1513 1512 1511 1510 1509 1508 1507 1506 1505 1504 1503 1502 1501 1500 1499 1498 1497 1496 1495 1494 1493
f 1515 1516 1517 1518 1519 1520 1521 1522 1523 1524 1525 1526 1527 1528 1529 1530 1531 1532 1533 1534 1535 1536
f 1493 1494 1516 1515
f 1494 1495 1517 1516
f 1495 1496 1518 1517
f 1496 1497 1519 1518
f 1497 1498 1520 1519
f 1498 1499 1521 1520
f 1499 1500 1522 1521
f 1500 1501 1523 1522
f 1501 1502 1524 1523
f 1502 1503 1525 1524
f 1503 1504 1526 1525
f 1504 1505 1527 1526
f 1505 1506 1528 1527
f 1506 1507 1529 1528
f 1507 1508 1530 1529
f 1508 1509 1531 1530
f 1509 1510 1532 1531
f 1510 1511 1533 1532
f 1511 1512 1534 1533
f 1512 1513 1535 1534
f 1513 1514 1536 1535
f 1514 1493 1515 1536
o school_0066
usemtl school
v -137.537 247.575 0.000
v -148.637 261.426 0.000
v -164.227 249.646 0.000
v -174.607 238.606 0.000
v -164.737 225.786 0.000
v -137.537 247.575 12.000
v -148.637 261.426 12.000
v -164.227 249.646 12.000
v -174.607 238.606 12.000
v -164.737 225.786 12.000
f 1541 1540 1539 1538 1537
f 1542 1543 1544 1545 1546
f 1537 1538 1543 1542
f 1538 1539 1544 1543
f 1539 1540 1545 1544
f 1540 1541 1546 1545
f 1541 1537 1542 1546
o school_0067
usemtl school
v -95.437 297.685 0.000
v -97.667 300.645 0.000
v -103.487 302.105 0.000
v -118.117 290.125 0.000
v -113.567 284.075 0.000
v -95.437 297.685 4.000
v -97.667 300.645 4.000
v -103.487 302.105 4.000
v -118.117 290.125 4.000
v -113.567 284.075 4.000
f 1551 1550 1549 1548 1547
f 1552 1553 1554 1555 1556
f 1547 1548 1553 1552
f 1548 1549 1554 1553
f 1549 1550 1555 1554
f 1550 1551 1556 1555
f 1551 1547 1552 1556
o school_0068
usemtl school
v -80.404 96.485 0.000
v -87.707 90.705 0.000
v -85.117 87.425 0.000
v -99.057 76.415 0.000
v -101.757 79.835 0.000
v -116.017 68.606 0.000
v -107.107 57.265 0.000
v -71.527 85.226 0.000
v -80.404 96.485 19.900
v -87.707 90.705 19.900
v -85.117 87.425 19.900
v -99.057 76.415 19.900
v -101.757 79.835 19.900
v -116.017 68.606 19.900
v -107.107 57.265 19.900
v -71.527 85.226 19.900
f 1564 1563 1562 1561 1560 1559 1558 1557
f 1565 1566 1567 1568 1569 1570 1571 1572
f 1557 1558 1566 1565
f 1558 1559 1567 1566
f 1559 1560 1568 1567
f 1560 1561 1569 1568
f 1561 1562 1570 1569
f 1562 1563 1571 1570
f 1563 1564 1572 1571
f 1564 1557 1565 1572
o school_0069
usemtl school
v -106.907 56.775 0.000
v -116.658 69.226 0.000
v -140.827 49.686 0.000
v -136.427 43.616 0.000
v -134.667 44.776 0.000
v -130.387 38.376 0.000
v -106.907 56.775 15.000
v -116.658 69.226 15.000
v -140.827 49.686 15.000
v -136.427 43.616 15.000
v -134.667 44.776 15.000
v -130.387 38.376 15.000
f 1578 1577 1576 1575 1574 1573
f 1579 1580 1581 1582 1583 1584
f 1573 1574 1580 1579
f 1574 1575 1581 1580
f 1575 1576 1582 1581
f 1576 1577 1583 1582
f 1577 1578 1584 1583
f 1578 1573 1579 1584
o school_0070
usemtl school
v -59.777 110.586 0.000
v -67.597 104.565 0.000
v -39.987 68.725 0.000
v -38.267 70.245 0.000
v -35.857 67.485 0.000
v -29.987 72.025 0.000
v -37.677 81.995 0.000
v -34.297 84.655 0.000
v -52.237 107.956 0.000
v -55.757 105.526 0.000
v -59.777 110.586 19.900
v -67.597 104.565 19.900
v -39.987 68.725 19.900
v -38.267 70.245 19.900
v -35.857 67.485 19.900
v -29.987 72.025 19.900
v -37.677 81.995 19.900
v -34.297 84.655 19.900
v -52.237 107.956 19.900
v -55.757 105.526 19.900
f 1594 1593 1592 1591 1590 1589 1588 1587 1586 1585
f 1595 1596 1597 1598 1599 1600 1601 1602 1603 1604
f 1585 1586 1596 1595
f 1586 1587 1597 1596
f 1587 1588 1598 1597
f 1588 1589 1599 1598
f 1589 1590 1600 1599
f 1590 1591 1601 1600
f 1591 1592 1602 1601
f 1592 1593 1603 1602
f 1593 1594 1604 1603
f 1594 1585 1595 1604
o school_0071
usemtl school
v -5.987 57.966 0.000
v -20.067 76.075 0.000
v -47.717 54.695 0.000
v -33.547 36.506 0.000
v -5.987 57.966 13.000
v -20.067 76.075 13.000
v -47.717 54.695 13.000
v -33.547 36.506 13.000
f 1608 1607 1606 1605
f 1609 1610 1611 1612
f 1605 1606 1610 1609
f 1606 1607 1611 1610
f 1607 1608 1612 1611
f 1608 1605 1609 1612
o school_0072
usemtl school
v -61.837 113.005 0.000
v -64.607 116.585 0.000
v -74.927 108.585 0.000
v -72.247 104.935 0.000
v -61.837 113.005 15.000
v -64.607 116.585 15.000
v -74.927 108.585 15.000
v -72.247 104.935 15.000
f 1616 1615 1614 1613
f 1617 1618 1619 1620
f 1613 1614 1618 1617
f 1614 1615 1619 1618
f 1615 1616 1620 1619
f 1616 1613 1617 1620
o school_0073
usemtl school
v -56.657 122.555 0.000
v -64.187 116.555 0.000
v -55.697 105.856 0.000
v -50.607 109.786 0.000
v -46.837 104.956 0.000
v -44.597 105.026 0.000
v -44.127 106.826 0.000
v -56.657 122.555 19.900
v -64.187 116.555 19.900
v -55.697 105.856 19.900
v -50.607 109.786 19.900
v -46.837 104.956 19.900
v -44.597 105.026 19.900
v -44.127 106.826 19.900
f 1627 1626 1625 1624 1623 1622 1621
f 1628 1629 1630 1631 1632 1633 1634
f 1621 1622 1629 1628
f 1622 1623 1630 1629
f 1623 1624 1631 1630
f 1624 1625 1632 1631
f 1625 1626 1633 1632
f 1626 1627 1634 1633
f 1627 1621 1628 1634
o school_0074
usemtl school
v -80.404 96.485 0.000
v -77.707 93.095 0.000
v -76.607 95.685 0.000
v -67.717 104.745 0.000
v -59.887 110.806 0.000
v -61.537 112.945 0.000
v -70.567 105.955 0.000
v -80.404 96.485 15.000
v -77.707 93.095 15.000
v -76.607 95.685 15.000
v -67.717 104.745 15.000
v -59.887 110.806 15.000
v -61.537 112.945 15.000
v -70.567 105.955 15.000
f 1641 1640 1639 1638 1637 1636 1635
f 1642 1643 1644 1645 1646 1647 1648
f 1635 1636 1643 1642
f 1636 1637 1644 1643
f 1637 1638 1645 1644
f 1638 1639 1646 1645
f 1639 1640 1647 1646
f 1640 1641 1648 1647
f 1641 1635 1642 1648
o school_0075
usemtl school
v 68.013 138.815 0.000
v 58.843 131.715 0.000
v 103.613 74.655 0.000
v 112.623 81.796 0.000
v 93.423 106.616 0.000
v 96.103 108.696 0.000
v 90.353 116.136 0.000
v 87.353 113.806 0.000
v 68.013 138.815 17.000
v 58.843 131.715 17.000
v 103.613 74.655 17.000
v 112.623 81.796 17.000
v 93.423 106.616 17.000
v 96.103 108.696 17.000
v 90.353 116.136 17.000
v 87.353 113.806 17.000
f 1656 1655 1654 1653 1652 1651 1650 1649
f 1657 1658 1659 1660 1661 1662 1663 1664
f 1649 1650 1658 1657
f 1650 1651 1659 1658
f 1651 1652 1660 1659
f 1652 1653 1661 1660
f 1653 1654 1662 1661
f 1654 1655 1663 1662
f 1655 1656 1664 1663
f 1656 1649 1657 1664
o school_0076
usemtl school
v 116.133 58.956 0.000
v 108.933 68.556 0.000
v 47.893 20.866 0.000
v 55.283 11.415 0.000
v 116.133 58.956 16.000
v 108.933 68.556 16.000
v 47.893 20.866 16.000
v 55.283 11.415 16.000
f 1668 1667 1666 1665
f 1669 1670 1671 1672
f 1665 1666 1670 1669
f 1666 1667 1671 1670
f 1667 1668 1672 1671
f 1668 1665 1669 1672
o school_0077
usemtl school
v 80.643 91.456 0.000
v 76.543 96.896 0.000
v 72.303 93.696 0.000
v 76.403 88.266 0.000
v 80.643 91.456 1.000
v 76.543 96.896 1.000
v 72.303 93.696 1.000
v 76.403 88.266 1.000
f 1676 1675 1674 1673
f 1677 1678 1679 1680
f 1673 1674 1678 1677
f 1674 1675 1679 1678
f 1675 1676 1680 1679
f 1676 1673 1677 1680
o school_0078
usemtl school
v 73.603 112.566 0.000
v 69.363 118.106 0.000
v 66.243 115.726 0.000
v 70.483 110.186 0.000
v 73.603 112.566 1.000
v 69.363 118.106 1.000
v 66.243 115.726 1.000
v 70.483 110.186 1.000
f 1684 1683 1682 1681
f 1685 1686 1687 1688
f 1681 1682 1686 1685
f 1682 1683 1687 1686
f 1683 1684 1688 1687
f 1684 1681 1685 1688
o school_0079
usemtl school
v 53.259 128.304 0.000
v 50.871 131.555 0.000
v 41.786 124.141 0.000
v 44.174 120.891 0.000
v 53.259 128.304 4.000
v 50.871 131.555 4.000
v 41.786 124.141 4.000
v 44.174 120.891 4.000
f 1692 1691 1690 1689
f 1693 1694 1695 1696
f 1689 1690 1694 1693
f 1690 1691 1695 1694
f 1691 1692 1696 1695
f 1692 1689 1693 1696
o school_0080
usemtl school
v 133.623 73.456 0.000
v 127.573 80.226 0.000
v 123.893 76.946 0.000
v 129.972 70.146 0.000
v 133.623 73.456 4.000
v 127.573 80.226 4.000
v 123.893 76.946 4.000
v 129.972 70.146 4.000
f 1700 1699 1698 1697
f 1701 1702 1703 1704
f 1697 1698 1702 1701
f 1698 1699 1703 1702
f 1699 1700 1704 1703
f 1700 1697 1701 1704
o school_0081
usemtl school
v 100.013 61.745 0.000
v 101.983 69.355 0.000
v 97.403 80.185 0.000
v 98.503 80.985 0.000
v 94.736 85.896 0.000
v 91.663 83.675 0.000
v 95.213 78.885 0.000
v 99.263 67.165 0.000
v 97.333 62.145 0.000
v 92.393 58.155 0.000
v 93.573 56.665 0.000
v 100.013 61.745 16.000
v 101.983 69.355 16.000
v 97.403 80.185 16.000
v 98.503 80.985 16.000
v 94.736 85.896 16.000
v 91.663 83.675 16.000
v 95.213 78.885 16.000
v 99.263 67.165 16.000
v 97.333 62.145 16.000
v 92.393 58.155 16.000
v 93.573 56.665 16.000
f 1715 1714 1713 1712 1711 1710 1709 1708 1707 1706 1705
f 1716 1717 1718 1719 1720 1721 1722 1723 1724 1725 1726
f 1705 1706 1717 1716
f 1706 1707 1718 1717
f 1707 1708 1719 1718
f 1708 1709 1720 1719
f 1709 1710 1721 1720
f 1710 1711 1722 1721
f 1711 1712 1723 1722
f 1712 1713 1724 1723
f 1713 1714 1725 1724
f 1714 1715 1726 1725
f 1715 1705 1716 1726
o context_0082
usemtl context
v -248.987 178.866 0.000
v -255.487 186.946 0.000
v -315.517 140.035 0.000
v -309.337 131.915 0.000
v -248.987 178.866 44.000
v -255.487 186.946 44.000
v -315.517 140.035 44.000
v -309.337 131.915 44.000
f 1730 1729 1728 1727
f 1731 1732 1733 1734
f 1727 1728 1732 1731
f 1728 1729 1733 1732
f 1729 1730 1734 1733
f 1730 1727 1731 1734
o context_0083
usemtl context
v -197.777 -183.594 0.000
v -210.137 -167.955 0.000
v -245.087 -195.574 0.000
v -232.707 -211.215 0.000
v -197.777 -183.594 12.000
v -210.137 -167.955 12.000
v -245.087 -195.574 12.000
v -232.707 -211.215 12.000
f 1738 1737 1736 1735
f 1739 1740 1741 1742
f 1735 1736 1740 1739
f 1736 1737 1741 1740
f 1737 1738 1742 1741
f 1738 1735 1739 1742
o context_0084
usemtl context
v -345.777 124.816 0.000
v -362.157 112.156 0.000
v -340.307 83.775 0.000
v -315.837 102.655 0.000
v -327.387 117.775 0.000
v -335.927 112.336 0.000
v -345.777 124.816 44.000
v -362.157 112.156 44.000
v -340.307 83.775 44.000
v -315.837 102.655 44.000
v -327.387 117.775 44.000
v -335.927 112.336 44.000
f 1748 1747 1746 1745 1744 1743
f 1749 1750 1751 1752 1753 1754
f 1743 1744 1750 1749
f 1744 1745 1751 1750
f 1745 1746 1752 1751
f 1746 1747 1753 1752
f 1747 1748 1754 1753
f 1748 1743 1749 1754
o context_0085
usemtl context
v -3.047 106.415 0.000
v -16.477 122.055 0.000
v -22.507 127.006 0.000
v -32.977 129.116 0.000
v -36.217 128.046 0.000
v -38.067 125.726 0.000
v -39.147 119.496 0.000
v -37.037 111.376 0.000
v -21.747 91.225 0.000
v -3.047 106.415 4.000
v -16.477 122.055 4.000
v -22.507 127.006 4.000
v -32.977 129.116 4.000
v -36.217 128.046 4.000
v -38.067 125.726 4.000
v -39.147 119.496 4.000
v -37.037 111.376 4.000
v -21.747 91.225 4.000
f 1763 1762 1761 1760 1759 1758 1757 1756 1755
f 1764 1765 1766 1767 1768 1769 1770 1771 1772
f 1755 1756 1765 1764
f 1756 1757 1766 1765
f 1757 1758 1767 1766
f 1758 1759 1768 1767
f 1759 1760 1769 1768
f 1760 1761 1770 1769
f 1761 1762 1771 1770
f 1762 1763 1772 1771
f 1763 1755 1764 1772
o context_0086
usemtl context
v 294.463 -72.124 0.000
v 295.213 -71.534 0.000
v 277.523 -49.225 0.000
v 255.473 -66.714 0.000
v 279.893 -98.224 0.000
v 299.033 -82.934 0.000
v 294.882 -77.414 0.000
v 298.242 -77.184 0.000
v 298.813 -74.864 0.000
v 294.463 -72.124 20.100
v 295.213 -71.534 20.100
v 277.523 -49.225 20.100
v 255.473 -66.714 20.100
v 279.893 -98.224 20.100
v 299.033 -82.934 20.100
v 294.882 -77.414 20.100
v 298.242 -77.184 20.100
v 298.813 -74.864 20.100
f 1781 1780 1779 1778 1777 1776 1775 1774 1773
f 1782 1783 1784 1785 1786 1787 1788 1789 1790
f 1773 1774 1783 1782
f 1774 1775 1784 1783
f 1775 1776 1785 1784
f 1776 1777 1786 1785
f 1777 1778 1787 1786
f 1778 1779 1788 1787
f 1779 1780 1789 1788
f 1780 1781 1790 1789
f 1781 1773 1782 1790
o context_0087
usemtl context
v -217.118 123.066 0.000
v -227.777 136.596 0.000
v -273.627 100.515 0.000
v -262.957 86.995 0.000
v -217.118 123.066 11.000
v -227.777 136.596 11.000
v -273.627 100.515 11.000
v -262.957 86.995 11.000
f 1794 1793 1792 1791
f 1795 1796 1797 1798
f 1791 1792 1796 1795
f 1792 1793 1797 1796
f 1793 1794 1798 1797
f 1794 1791 1795 1798
o context_0088
usemtl context
v -203.997 -192.954 0.000
v -204.837 -191.684 0.000
v -201.187 -188.654 0.000
v -202.047 -187.624 0.000
v -228.967 -208.385 0.000
v -228.017 -209.605 0.000
v -224.167 -206.635 0.000
v -223.267 -207.794 0.000
v -203.997 -192.954 4.000
v -204.837 -191.684 4.000
v -201.187 -188.654 4.000
v -202.047 -187.624 4.000
v -228.967 -208.385 4.000
v -228.017 -209.605 4.000
v -224.167 -206.635 4.000
v -223.267 -207.794 4.000
f 1806 1805 1804 1803 1802 1801 1800 1799
f 1807 1808 1809 1810 1811 1812 1813 1814
f 1799 1800 1808 1807
f 1800 1801 1809 1808
f 1801 1802 1810 1809
f 1802 1803 1811 1810
f 1803 1804 1812 1811
f 1804 1805 1813 1812
f 1805 1806 1814 1813
f 1806 1799 1807 1814
o context_0089
usemtl context
v 269.023 20.796 0.000
v 259.723 29.595 0.000
v 254.603 23.505 0.000
v 263.583 15.016 0.000
v 269.023 20.796 4.000
v 259.723 29.595 4.000
v 254.603 23.505 4.000
v 263.583 15.016 4.000
f 1818 1817 1816 1815
f 1819 1820 1821 1822
f 1815 1816 1820 1819
f 1816 1817 1821 1820
f 1817 1818 1822 1821
f 1818 1815 1819 1822
o context_0090
usemtl context
v 63.733 141.885 0.000
v 60.683 145.846 0.000
v 40.923 130.576 0.000
v 43.943 126.615 0.000
v 63.733 141.885 4.000
v 60.683 145.846 4.000
v 40.923 130.576 4.000
v 43.943 126.615 4.000
f 1826 1825 1824 1823
f 1827 1828 1829 1830
f 1823 1824 1828 1827
f 1824 1825 1829 1828
f 1825 1826 1830 1829
f 1826 1823 1827 1830
o context_0091
usemtl context
v -87.248 118.845 0.000
v -144.447 192.725 0.000
v -154.857 184.595 0.000
v -97.677 110.786 0.000
v -87.248 118.845 41.200
v -144.447 192.725 41.200
v -154.857 184.595 41.200
v -97.677 110.786 41.200
f 1834 1833 1832 1831
f 1835 1836 1837 1838
f 1831 1832 1836 1835
f 1832 1833 1837 1836
f 1833 1834 1838 1837
f 1834 1831 1835 1838
o context_0092
usemtl context
v 255.723 -73.618 0.000
v 251.123 -67.588 0.000
v 247.780 -70.346 0.000
v 252.380 -76.376 0.000
v 255.723 -73.618 4.000
v 251.123 -67.588 4.000
v 247.780 -70.346 4.000
v 252.380 -76.376 4.000
f 1842 1841 1840 1839
f 1843 1844 1845 1846
f 1839 1840 1844 1843
f 1840 1841 1845 1844
f 1841 1842 1846 1845
f 1842 1839 1843 1846
o context_0093
usemtl context
v 230.593 -136.815 0.000
v 228.223 -133.445 0.000
v 220.863 -138.605 0.000
v 223.233 -141.975 0.000
v 230.593 -136.815 4.000
v 228.223 -133.445 4.000
v 220.863 -138.605 4.000
v 223.233 -141.975 4.000
f 1850 1849 1848 1847
f 1851 1852 1853 1854
f 1847 1848 1852 1851
f 1848 1849 1853 1852
f 1849 1850 1854 1853
f 1850 1847 1851 1854
o context_0094
usemtl context
v -193.487 154.575 0.000
v -202.047 147.936 0.000
v -144.807 74.105 0.000
v -136.357 80.796 0.000
v -138.007 82.875 0.000
v -136.977 83.686 0.000
v -146.737 95.985 0.000
v -142.292 99.400 0.000
v -145.222 103.190 0.000
v -149.667 99.785 0.000
v -178.327 136.735 0.000
v -174.066 140.096 0.000
v -176.996 143.876 0.000
v -181.057 140.665 0.000
v -190.647 153.026 0.000
v -191.667 152.226 0.000
v -193.487 154.575 41.200
v -202.047 147.936 41.200
v -144.807 74.105 41.200
v -136.357 80.796 41.200
v -138.007 82.875 41.200
v -136.977 83.686 41.200
v -146.737 95.985 41.200
v -142.292 99.400 41.200
v -145.222 103.190 41.200
v -149.667 99.785 41.200
v -178.327 136.735 41.200
v -174.066 140.096 41.200
v -176.996 143.876 41.200
v -181.057 140.665 41.200
v -190.647 153.026 41.200
v -191.667 152.226 41.200
f 1870 1869 1868 1867 1866 1865 1864 1863 1862 1861 1860 1859 1858 1857 1856 1855
f 1871 1872 1873 1874 1875 1876 1877 1878 1879 1880 1881 1882 1883 1884 1885 1886
f 1855 1856 1872 1871
f 1856 1857 1873 1872
f 1857 1858 1874 1873
f 1858 1859 1875 1874
f 1859 1860 1876 1875
f 1860 1861 1877 1876
f 1861 1862 1878 1877
f 1862 1863 1879 1878
f 1863 1864 1880 1879
f 1864 1865 1881 1880
f 1865 1866 1882 1881
f 1866 1867 1883 1882
f 1867 1868 1884 1883
f 1868 1869 1885 1884
f 1869 1870 1886 1885
f 1870 1855 1871 1886
o context_0095
usemtl context
v -247.867 -62.854 0.000
v -334.167 48.146 0.000
v -342.967 41.306 0.000
v -256.587 -69.854 0.000
v -247.867 -62.854 35.600
v -334.167 48.146 35.600
v -342.967 41.306 35.600
v -256.587 -69.854 35.600
f 1890 1889 1888 1887
f 1891 1892 1893 1894
f 1887 1888 1892 1891
f 1888 1889 1893 1892
f 1889 1890 1894 1893
f 1890 1887 1891 1894
o context_0096
usemtl context
v -316.747 -47.174 0.000
v -323.577 -38.264 0.000
v -351.477 -60.195 0.000
v -344.567 -68.995 0.000
v -316.747 -47.174 35.600
v -323.577 -38.264 35.600
v -351.477 -60.195 35.600
v -344.567 -68.995 35.600
f 1898 1897 1896 1895
f 1899 1900 1901 1902
f 1895 1896 1900 1899
f 1896 1897 1901 1900
f 1897 1898 1902 1901
f 1898 1895 1899 1902
o context_0097
usemtl context
v -65.707 -293.504 0.000
v -136.557 -202.264 0.000
v -145.627 -209.124 0.000
v -74.707 -300.784 0.000
v -65.707 -293.504 35.600
v -136.557 -202.264 35.600
v -145.627 -209.124 35.600
v -74.707 -300.784 35.600
f 1906 1905 1904 1903
f 1907 1908 1909 1910
f 1903 1904 1908 1907
f 1904 1905 1909 1908
f 1905 1906 1910 1909
f 1906 1903 1907 1910
o context_0098
usemtl context
v -145.957 -355.634 0.000
v -216.967 -264.424 0.000
v -226.037 -271.474 0.000
v -154.897 -362.804 0.000
v -145.957 -355.634 35.600
v -216.967 -264.424 35.600
v -226.037 -271.474 35.600
v -154.897 -362.804 35.600
f 1914 1913 1912 1911
f 1915 1916 1917 1918
f 1911 1912 1916 1915
f 1912 1913 1917 1916
f 1913 1914 1918 1917
f 1914 1911 1915 1918
o context_0099
usemtl context
v -172.987 -159.324 0.000
v -240.107 -73.145 0.000
v -248.287 -79.565 0.000
v -181.337 -165.874 0.000
v -172.987 -159.324 35.600
v -240.107 -73.145 35.600
v -248.287 -79.565 35.600
v -181.337 -165.874 35.600
f 1922 1921 1920 1919
f 1923 1924 1925 1926
f 1919 1920 1924 1923
f 1920 1921 1925 1924
f 1921 1922 1926 1925
f 1922 1919 1923 1926
o context_0100
usemtl context
v -122.717 -296.294 0.000
v -131.547 -301.844 0.000
v -133.277 -299.684 0.000
v -134.997 -301.214 0.000
v -133.447 -302.964 0.000
v -137.187 -306.284 0.000
v -136.507 -307.194 0.000
v -145.097 -313.674 0.000
v -145.777 -312.774 0.000
v -149.787 -315.804 0.000
v -151.607 -313.894 0.000
v -153.187 -315.394 0.000
v -151.747 -316.914 0.000
v -155.347 -320.344 0.000
v -154.587 -321.364 0.000
v -159.037 -324.664 0.000
v -152.237 -333.854 0.000
v -115.588 -305.174 0.000
v -122.717 -296.294 35.600
v -131.547 -301.844 35.600
v -133.277 -299.684 35.600
v -134.997 -301.214 35.600
v -133.447 -302.964 35.600
v -137.187 -306.284 35.600
v -136.507 -307.194 35.600
v -145.097 -313.674 35.600
v -145.777 -312.774 35.600
v -149.787 -315.804 35.600
v -151.607 -313.894 35.600
v -153.187 -315.394 35.600
v -151.747 -316.914 35.600
v -155.347 -320.344 35.600
v -154.587 -321.364 35.600
v -159.037 -324.664 35.600
v -152.237 -333.854 35.600
v -115.588 -305.174 35.600
f 1944 1943 1942 1941 1940 1939 1938 1937 1936 1935 1934 1933 1932 1931 1930 1929 1928 1927
f 1945 1946 1947 1948 1949 1950 1951 1952 1953 1954 1955 1956 1957 1958 1959 1960 1961 1962
f 1927 1928 1946 1945
f 1928 1929 1947 1946
f 1929 1930 1948 1947
f 1930 1931 1949 1948
f 1931 1932 1950 1949
f 1932 1933 1951 1950
f 1933 1934 1952 1951
f 1934 1935 1953 1952
f 1935 1936 1954 1953
f 1936 1937 1955 1954
f 1937 1938 1956 1955
f 1938 1939 1957 1956
f 1939 1940 1958 1957
f 1940 1941 1959 1958
f 1941 1942 1960 1959
f 1942 1943 1961 1960
f 1943 1944 1962 1961
f 1944 1927 1945 1962
o context_0101
usemtl context
v -267.817 -109.974 0.000
v -270.347 -106.234 0.000
v -268.897 -105.124 0.000
v -272.338 -100.724 0.000
v -287.877 -112.894 0.000
v -291.247 -108.564 0.000
v -295.027 -111.504 0.000
v -291.687 -115.794 0.000
v -303.677 -125.124 0.000
v -302.607 -126.504 0.000
v -304.557 -128.014 0.000
v -299.187 -134.384 0.000
v -267.817 -109.974 35.600
v -270.347 -106.234 35.600
v -268.897 -105.124 35.600
v -272.338 -100.724 35.600
v -287.877 -112.894 35.600
v -291.247 -108.564 35.600
v -295.027 -111.504 35.600
v -291.687 -115.794 35.600
v -303.677 -125.124 35.600
v -302.607 -126.504 35.600
v -304.557 -128.014 35.600
v -299.187 -134.384 35.600
f 1974 1973 1972 1971 1970 1969 1968 1967 1966 1965 1964 1963
f 1975 1976 1977 1978 1979 1980 1981 1982 1983 1984 1985 1986
f 1963 1964 1976 1975
f 1964 1965 1977 1976
f 1965 1966 1978 1977
f 1966 1967 1979 1978
f 1967 1968 1980 1979
f 1968 1969 1981 1980
f 1969 1970 1982 1981
f 1970 1971 1983 1982
f 1971 1972 1984 1983
f 1972 1973 1985 1984
f 1973 1974 1986 1985
f 1974 1963 1975 1986
o context_0102
usemtl context
v -357.118 4.416 0.000
v -363.938 13.315 0.000
v -391.837 -8.605 0.000
v -384.937 -17.415 0.000
v -357.118 4.416 35.600
v -363.938 13.315 35.600
v -391.837 -8.605 35.600
v -384.937 -17.415 35.600
f 1990 1989 1988 1987
f 1991 1992 1993 1994
f 1987 1988 1992 1991
f 1988 1989 1993 1992
f 1989 1990 1994 1993
f 1990 1987 1991 1994
o context_0103
usemtl context
v -133.907 -287.794 0.000
v -176.487 -233.265 0.000
v -185.547 -240.275 0.000
v -143.077 -294.894 0.000
v -133.907 -287.794 35.600
v -176.487 -233.265 35.600
v -185.547 -240.275 35.600
v -143.077 -294.894 35.600
f 1998 1997 1996 1995
f 1999 2000 2001 2002
f 1995 1996 2000 1999
f 1996 1997 2001 2000
f 1997 1998 2002 2001
f 1998 1995 1999 2002
o context_0104
usemtl context
v 20.583 -402.965 0.000
v -45.747 -317.855 0.000
v -55.967 -325.435 0.000
v 9.903 -410.704 0.000
v 20.583 -402.965 35.600
v -45.747 -317.855 35.600
v -55.967 -325.435 35.600
v 9.903 -410.704 35.600
f 2006 2005 2004 2003
f 2007 2008 2009 2010
f 2003 2004 2008 2007
f 2004 2005 2009 2008
f 2005 2006 2010 2009
f 2006 2003 2007 2010
o context_0105
usemtl context
v -85.347 -344.454 0.000
v -91.847 -349.094 0.000
v -94.477 -347.214 0.000
v -97.537 -349.064 0.000
v -95.167 -352.134 0.000
v -109.277 -363.024 0.000
v -111.547 -360.324 0.000
v -114.817 -362.194 0.000
v -112.448 -365.404 0.000
v -116.896 -368.684 0.000
v -114.497 -371.924 0.000
v -117.527 -374.164 0.000
v -112.857 -380.864 0.000
v -77.967 -354.074 0.000
v -85.347 -344.454 35.600
v -91.847 -349.094 35.600
v -94.477 -347.214 35.600
v -97.537 -349.064 35.600
v -95.167 -352.134 35.600
v -109.277 -363.024 35.600
v -111.547 -360.324 35.600
v -114.817 -362.194 35.600
v -112.448 -365.404 35.600
v -116.896 -368.684 35.600
v -114.497 -371.924 35.600
v -117.527 -374.164 35.600
v -112.857 -380.864 35.600
v -77.967 -354.074 35.600
f 2024 2023 2022 2021 2020 2019 2018 2017 2016 2015 2014 2013 2012 2011
f 2025 2026 2027 2028 2029 2030 2031 2032 2033 2034 2035 2036 2037 2038
f 2011 2012 2026 2025
f 2012 2013 2027 2026
f 2013 2014 2028 2027
f 2014 2015 2029 2028
f 2015 2016 2030 2029
f 2016 2017 2031 2030
f 2017 2018 2032 2031
f 2018 2019 2033 2032
f 2019 2020 2034 2033
f 2020 2021 2035 2034
f 2021 2022 2036 2035
f 2022 2023 2037 2036
f 2023 2024 2038 2037
f 2024 2011 2025 2038
o context_0106
usemtl context
v -321.468 -133.405 0.000
v -328.457 -138.845 0.000
v -260.337 -226.184 0.000
v -253.527 -220.884 0.000
v -255.167 -218.785 0.000
v -253.977 -217.854 0.000
v -269.527 -197.994 0.000
v -265.227 -194.604 0.000
v -268.057 -191.004 0.000
v -272.367 -194.394 0.000
v -306.667 -150.744 0.000
v -302.178 -147.214 0.000
v -305.087 -143.504 0.000
v -309.287 -146.804 0.000
v -319.178 -134.215 0.000
v -320.207 -135.015 0.000
v -321.468 -133.405 35.600
v -328.457 -138.845 35.600
v -260.337 -226.184 35.600
v -253.527 -220.884 35.600
v -255.167 -218.785 35.600
v -253.977 -217.854 35.600
v -269.527 -197.994 35.600
v -265.227 -194.604 35.600
v -268.057 -191.004 35.600
v -272.367 -194.394 35.600
v -306.667 -150.744 35.600
v -302.178 -147.214 35.600
v -305.087 -143.504 35.600
v -309.287 -146.804 35.600
v -319.178 -134.215 35.600
v -320.207 -135.015 35.600
f 2054 2053 2052 2051 2050 2049 2048 2047 2046 2045 2044 2043 2042 2041 2040 2039
f 2055 2056 2057 2058 2059 2060 2061 2062 2063 2064 2065 2066 2067 2068 2069 2070
f 2039 2040 2056 2055
f 2040 2041 2057 2056
f 2041 2042 2058 2057
f 2042 2043 2059 2058
f 2043 2044 2060 2059
f 2044 2045 2061 2060
f 2045 2046 2062 2061
f 2046 2047 2063 2062
f 2047 2048 2064 2063
f 2048 2049 2065 2064
f 2049 2050 2066 2065
f 2050 2051 2067 2066
f 2051 2052 2068 2067
f 2052 2053 2069 2068
f 2053 2054 2070 2069
f 2054 2039 2055 2070
o context_0107
usemtl context
v -230.107 -158.394 0.000
v -232.637 -154.894 0.000
v -231.357 -153.644 0.000
v -234.787 -149.214 0.000
v -250.187 -161.314 0.000
v -253.577 -156.894 0.000
v -257.387 -159.814 0.000
v -254.047 -164.164 0.000
v -265.627 -173.044 0.000
v -264.457 -174.514 0.000
v -266.887 -176.424 0.000
v -261.587 -183.154 0.000
v -230.107 -158.394 35.600
v -232.637 -154.894 35.600
v -231.357 -153.644 35.600
v -234.787 -149.214 35.600
v -250.187 -161.314 35.600
v -253.577 -156.894 35.600
v -257.387 -159.814 35.600
v -254.047 -164.164 35.600
v -265.627 -173.044 35.600
v -264.457 -174.514 35.600
v -266.887 -176.424 35.600
v -261.587 -183.154 35.600
f 2082 2081 2080 2079 2078 2077 2076 2075 2074 2073 2072 2071
f 2083 2084 2085 2086 2087 2088 2089 2090 2091 2092 2093 2094
f 2071 2072 2084 2083
f 2072 2073 2085 2084
f 2073 2074 2086 2085
f 2074 2075 2087 2086
f 2075 2076 2088 2087
f 2076 2077 2089 2088
f 2077 2078 2090 2089
f 2078 2079 2091 2090
f 2079 2080 2092 2091
f 2080 2081 2093 2092
f 2081 2082 2094 2093
f 2082 2071 2083 2094
o context_0108
usemtl context
v 169.793 318.727 0.000
v 167.027 321.478 0.000
v 161.590 316.012 0.000
v 164.356 313.260 0.000
v 169.793 318.727 4.000
v 167.027 321.478 4.000
v 161.590 316.012 4.000
v 164.356 313.260 4.000
f 2098 2097 2096 2095
f 2099 2100 2101 2102
f 2095 2096 2100 2099
f 2096 2097 2101 2100
f 2097 2098 2102 2101
f 2098 2095 2099 2102
o context_0109
usemtl context
v -136.987 323.506 0.000
v -141.408 330.805 0.000
v -147.306 326.304 0.000
v -141.717 319.475 0.000
v -136.987 323.506 4.000
v -141.408 330.805 4.000
v -147.306 326.304 4.000
v -141.717 319.475 4.000
f 2106 2105 2104 2103
f 2107 2108 2109 2110
f 2103 2104 2108 2107
f 2104 2105 2109 2108
f 2105 2106 2110 2109
f 2106 2103 2107 2110
o context_0110
usemtl context
v -161.967 325.525 0.000
v -168.727 334.126 0.000
v -173.437 330.226 0.000
v -167.017 321.705 0.000
v -161.967 325.525 4.000
v -168.727 334.126 4.000
v -173.437 330.226 4.000
v -167.017 321.705 4.000
f 2114 2113 2112 2111
f 2115 2116 2117 2118
f 2111 2112 2116 2115
f 2112 2113 2117 2116
f 2113 2114 2118 2117
f 2114 2111 2115 2118
o context_0111
usemtl context
v 47.333 225.185 0.000
v 41.953 230.165 0.000
v 36.523 224.305 0.000
v 41.893 219.315 0.000
v 47.333 225.185 4.000
v 41.953 230.165 4.000
v 36.523 224.305 4.000
v 41.893 219.315 4.000
f 2122 2121 2120 2119
f 2123 2124 2125 2126
f 2119 2120 2124 2123
f 2120 2121 2125 2124
f 2121 2122 2126 2125
f 2122 2119 2123 2126
o context_0112
usemtl context
v 251.857 223.987 0.000
v 246.609 228.974 0.000
v 242.817 224.591 0.000
v 248.236 219.849 0.000
v 251.857 223.987 4.000
v 246.609 228.974 4.000
v 242.817 224.591 4.000
v 248.236 219.849 4.000
f 2130 2129 2128 2127
f 2131 2132 2133 2134
f 2127 2128 2132 2131
f 2128 2129 2133 2132
f 2129 2130 2134 2133
f 2130 2127 2131 2134
o context_0113
usemtl context
v -238.227 246.666 0.000
v -242.517 243.345 0.000
v -241.727 242.316 0.000
v -249.407 236.365 0.000
v -251.237 238.645 0.000
v -263.667 229.065 0.000
v -260.457 224.975 0.000
v -259.387 225.815 0.000
v -253.337 218.036 0.000
v -248.157 222.046 0.000
v -245.217 218.246 0.000
v -250.437 214.206 0.000
v -244.367 206.366 0.000
v -245.337 205.626 0.000
v -242.167 201.526 0.000
v -229.847 211.066 0.000
v -231.757 213.526 0.000
v -223.837 219.656 0.000
v -223.007 218.586 0.000
v -218.857 221.796 0.000
v -227.117 232.466 0.000
v -233.477 227.536 0.000
v -236.277 231.146 0.000
v -229.977 236.016 0.000
v -238.227 246.666 44.000
v -242.517 243.345 44.000
v -241.727 242.316 44.000
v -249.407 236.365 44.000
v -251.237 238.645 44.000
v -263.667 229.065 44.000
v -260.457 224.975 44.000
v -259.387 225.815 44.000
v -253.337 218.036 44.000
v -248.157 222.046 44.000
v -245.217 218.246 44.000
v -250.437 214.206 44.000
v -244.367 206.366 44.000
v -245.337 205.626 44.000
v -242.167 201.526 44.000
v -229.847 211.066 44.000
v -231.757 213.526 44.000
v -223.837 219.656 44.000
v -223.007 218.586 44.000
v -218.857 221.796 44.000
v -227.117 232.466 44.000
v -233.477 227.536 44.000
v -236.277 231.146 44.000
v -229.977 236.016 44.000
f 2158 2157 2156 2155 2154 2153 2152 2151 2150 2149 2148 2147 2146 2145 2144 2143 2142 2141 2140 2139 2138 2137 2136 2135
f 2159 2160 2161 2162 2163 2164 2165 2166 2167 2168 2169 2170 2171 2172 2173 2174 2175 2176 2177 2178 2179 2180 2181 2182
f 2135 2136 2160 2159
f 2136 2137 2161 2160
f 2137 2138 2162 2161
f 2138 2139 2163 2162
f 2139 2140 2164 2163
f 2140 2141 2165 2164
f 2141 2142 2166 2165
f 2142 2143 2167 2166
f 2143 2144 2168 2167
f 2144 2145 2169 2168
f 2145 2146 2170 2169
f 2146 2147 2171 2170
f 2147 2148 2172 2171
f 2148 2149 2173 2172
f 2149 2150 2174 2173
f 2150 2151 2175 2174
f 2151 2152 2176 2175
f 2152 2153 2177 2176
f 2153 2154 2178 2177
f 2154 2155 2179 2178
f 2155 2156 2180 2179
f 2156 2157 2181 2180
f 2157 2158 2182 2181
f 2158 2135 2159 2182
o context_0114
usemtl context
v -262.417 200.516 0.000
v -260.256 202.276 0.000
v -272.527 217.925 0.000
v -300.227 196.636 0.000
v -301.057 197.716 0.000
v -304.267 195.256 0.000
v -303.237 193.916 0.000
v -309.537 189.076 0.000
v -302.287 179.596 0.000
v -293.387 186.395 0.000
v -288.597 180.165 0.000
v -286.107 182.075 0.000
v -287.077 183.605 0.000
v -266.877 199.535 0.000
v -264.957 197.106 0.000
v -262.297 199.196 0.000
v -262.417 200.516 4.000
v -260.256 202.276 4.000
v -272.527 217.925 4.000
v -300.227 196.636 4.000
v -301.057 197.716 4.000
v -304.267 195.256 4.000
v -303.237 193.916 4.000
v -309.537 189.076 4.000
v -302.287 179.596 4.000
v -293.387 186.395 4.000
v -288.597 180.165 4.000
v -286.107 182.075 4.000
v -287.077 183.605 4.000
v -266.877 199.535 4.000
v -264.957 197.106 4.000
v -262.297 199.196 4.000
f 2198 2197 2196 2195 2194 2193 2192 2191 2190 2189 2188 2187 2186 2185 2184 2183
f 2199 2200 2201 2202 2203 2204 2205 2206 2207 2208 2209 2210 2211 2212 2213 2214
f 2183 2184 2200 2199
f 2184 2185 2201 2200
f 2185 2186 2202 2201
f 2186 2187 2203 2202
f 2187 2188 2204 2203
f 2188 2189 2205 2204
f 2189 2190 2206 2205
f 2190 2191 2207 2206
f 2191 2192 2208 2207
f 2192 2193 2209 2208
f 2193 2194 2210 2209
f 2194 2195 2211 2210
f 2195 2196 2212 2211
f 2196 2197 2213 2212
f 2197 2198 2214 2213
f 2198 2183 2199 2214
o context_0115
usemtl context
v 3.123 175.026 0.000
v -3.907 183.156 0.000
v -8.347 179.306 0.000
v -1.317 171.186 0.000
v 3.123 175.026 4.000
v -3.907 183.156 4.000
v -8.347 179.306 4.000
v -1.317 171.186 4.000
f 2218 2217 2216 2215
f 2219 2220 2221 2222
f 2215 2216 2220 2219
f 2216 2217 2221 2220
f 2217 2218 2222 2221
f 2218 2215 2219 2222
o context_0116
usemtl context
v -160.167 180.365 0.000
v -164.387 185.775 0.000
v -187.528 167.766 0.000
v -183.256 162.435 0.000
v -160.167 180.365 14.000
v -164.387 185.775 14.000
v -187.528 167.766 14.000
v -183.256 162.435 14.000
f 2226 2225 2224 2223
f 2227 2228 2229 2230
f 2223 2224 2228 2227
f 2224 2225 2229 2228
f 2225 2226 2230 2229
f 2226 2223 2227 2230
o context_0117
usemtl context
v -0.697 274.568 0.000
v -12.975 286.981 0.000
v -16.999 282.862 0.000
v -4.504 270.472 0.000
v -0.697 274.568 6.400
v -12.975 286.981 6.400
v -16.999 282.862 6.400
v -4.504 270.472 6.400
f 2234 2233 2232 2231
f 2235 2236 2237 2238
f 2231 2232 2236 2235
f 2232 2233 2237 2236
f 2233 2234 2238 2237
f 2234 2231 2235 2238
o context_0118
usemtl context
v 253.573 -130.904 0.000
v 254.393 -124.544 0.000
v 250.763 -119.175 0.000
v 243.623 -118.225 0.000
v 238.243 -122.265 0.000
v 237.663 -128.875 0.000
v 241.583 -134.215 0.000
v 248.123 -135.015 0.000
v 253.573 -130.904 5.300
v 254.393 -124.544 5.300
v 250.763 -119.175 5.300
v 243.623 -118.225 5.300
v 238.243 -122.265 5.300
v 237.663 -128.875 5.300
v 241.583 -134.215 5.300
v 248.123 -135.015 5.300
f 2246 2245 2244 2243 2242 2241 2240 2239
f 2247 2248 2249 2250 2251 2252 2253 2254
f 2239 2240 2248 2247
f 2240 2241 2249 2248
f 2241 2242 2250 2249
f 2242 2243 2251 2250
f 2243 2244 2252 2251
f 2244 2245 2253 2252
f 2245 2246 2254 2253
f 2246 2239 2247 2254
o context_0119
usemtl context
v -105.367 -119.964 0.000
v -116.087 -106.225 0.000
v -162.197 -142.224 0.000
v -151.447 -155.945 0.000
v -105.367 -119.964 11.000
v -116.087 -106.225 11.000
v -162.197 -142.224 11.000
v -151.447 -155.945 11.000
f 2258 2257 2256 2255
f 2259 2260 2261 2262
f 2255 2256 2260 2259
f 2256 2257 2261 2260
f 2257 2258 2262 2261
f 2258 2255 2259 2262